# Blender v2.93.5 OBJ File: 'planet.blend'
# www.blender.org
mtllib obj_planet_piece_8.mtl
o Cube.015_Cube.030
v -0.715243 -0.715243 0.715243
v -0.875990 -0.000000 0.875990
v -0.875990 -0.875990 -0.000000
v 0.000000 -0.875991 0.875990
v 0.000000 -0.000000 1.238837
v -1.238837 -0.000000 -0.000000
v 0.000000 -1.238837 -0.000000
v -0.825892 -0.825892 0.412946
v -0.825892 -0.412946 0.825891
v -0.412946 -0.825892 0.825891
v -0.554025 -0.000000 1.108050
v 0.000000 -0.554025 1.108050
v -1.108050 -0.000000 0.554025
v -1.108050 -0.554025 -0.000000
v -0.000000 -1.108050 0.554025
v -0.554025 -1.108050 -0.000000
v -0.505753 -1.011507 0.505753
v -0.505753 -0.505754 1.011506
v -1.011506 -0.505753 0.505753
v -0.773896 -0.773896 0.580421
v -0.862616 -0.215654 0.862616
v -0.215654 -0.862616 0.862615
v -0.300462 -0.000000 1.201849
v -0.000000 -0.300463 1.201849
v -0.991070 -0.000000 0.743302
v -1.201849 -0.300462 -0.000000
v -0.000000 -1.201849 0.300462
v -0.300462 -1.201849 -0.000000
v -0.862616 -0.862616 0.215654
v -0.773896 -0.580422 0.773895
v -0.580422 -0.773896 0.773895
v -0.743302 -0.000000 0.991070
v -0.000000 -0.743303 0.991070
v -1.201849 -0.000000 0.300462
v -0.991070 -0.743302 -0.000000
v 0.000000 -0.991070 0.743302
v -0.743302 -0.991070 -0.000000
v -0.540673 -1.081346 0.270336
v -0.460093 -0.920186 0.690139
v -0.270336 -1.081346 0.540673
v -0.690139 -0.920185 0.460092
v -0.270336 -0.540673 1.081346
v -0.690139 -0.460093 0.920185
v -0.540673 -0.270337 1.081346
v -0.460093 -0.690139 0.920185
v -0.920185 -0.460093 0.690139
v -1.081346 -0.540673 0.270336
v -1.081346 -0.270337 0.540673
v -0.920185 -0.690139 0.460092
v -0.971824 -0.728868 0.242956
v -1.167987 -0.291997 0.291997
v -0.971824 -0.242956 0.728868
v -0.637377 -0.637377 0.849835
v -0.728868 -0.242956 0.971824
v -0.291997 -0.291997 1.167987
v -0.637377 -0.849836 0.637376
v -0.242956 -0.971824 0.728868
v -0.291997 -1.167987 0.291996
v -0.728868 -0.971824 0.242956
v -0.242956 -0.728868 0.971824
v -0.849835 -0.637377 0.637376
v -0.504027 -0.504027 0.504027
v -0.617305 -0.000000 0.617305
v -0.617305 -0.617305 -0.000000
v 0.000000 -0.617305 0.617304
v 0.000000 -0.000000 0.873001
v -0.873001 0.000000 -0.000000
v 0.000000 -0.873001 -0.000000
v -0.582000 -0.582000 0.291000
v -0.582000 -0.291000 0.582000
v -0.291000 -0.582001 0.582000
v -0.390418 -0.000000 0.780835
v 0.000000 -0.390418 0.780835
v -0.780835 -0.000000 0.390418
v -0.780835 -0.390418 -0.000000
v 0.000000 -0.780835 0.390417
v -0.390418 -0.780835 -0.000000
v -0.356401 -0.712802 0.356401
v -0.356401 -0.356401 0.712802
v -0.712802 -0.356401 0.356401
v -0.545359 -0.545359 0.409019
v -0.607880 -0.151970 0.607879
v -0.151970 -0.607880 0.607879
v -0.211734 -0.000000 0.846935
v -0.000000 -0.211734 0.846935
v -0.698400 -0.000000 0.523800
v -0.846935 -0.211734 -0.000000
v 0.000000 -0.846935 0.211733
v -0.211734 -0.846935 -0.000000
v -0.607880 -0.607880 0.151970
v -0.545359 -0.409020 0.545359
v -0.409019 -0.545359 0.545359
v -0.523800 -0.000000 0.698400
v -0.000000 -0.523801 0.698400
v -0.846935 -0.000000 0.211734
v -0.698400 -0.523800 -0.000000
v -0.000000 -0.698401 0.523800
v -0.523800 -0.698400 -0.000000
v -0.381009 -0.762017 0.190504
v -0.324224 -0.648449 0.486336
v -0.190504 -0.762017 0.381008
v -0.486336 -0.648449 0.324224
v -0.190504 -0.381009 0.762017
v -0.486336 -0.324224 0.648448
v -0.381009 -0.190505 0.762017
v -0.324224 -0.486337 0.648448
v -0.648448 -0.324224 0.486336
v -0.762017 -0.381009 0.190504
v -0.762017 -0.190504 0.381009
v -0.648448 -0.486336 0.324224
v -0.684838 -0.513628 0.171209
v -0.823073 -0.205768 0.205768
v -0.684838 -0.171210 0.513628
v -0.449155 -0.449155 0.598873
v -0.513628 -0.171210 0.684838
v -0.205768 -0.205768 0.823073
v -0.449155 -0.598874 0.449155
v -0.171209 -0.684838 0.513628
v -0.205768 -0.823073 0.205768
v -0.513628 -0.684838 0.171209
v -0.171209 -0.513629 0.684838
v -0.598873 -0.449155 0.449155
vt -0.039345 0.697215
vt -0.082058 0.712542
vt -0.072398 0.672508
vt 0.775424 0.690534
vt 0.758374 0.608395
vt 0.799124 0.650408
vt 0.092231 0.748963
vt 0.205360 0.755031
vt 0.097675 0.772254
vt 0.186420 0.784348
vt 0.430604 0.755282
vt 0.571826 0.773122
vt 0.826234 0.746373
vt 0.709025 0.759933
vt 0.755933 0.728370
vt -0.045816 0.734592
vt -0.038077 0.767149
vt -0.099645 0.746204
vt 0.820577 0.586436
vt 0.799915 0.438900
vt 0.839429 0.492025
vt -0.097127 0.619510
vt -0.121448 0.524102
vt -0.086878 0.538367
vt 0.874026 0.717119
vt 0.845348 0.672553
vt 0.890111 0.678028
vt -0.031038 0.560309
vt -0.064787 0.615969
vt -0.058662 0.541359
vt 0.050814 0.571138
vt 0.007371 0.657590
vt 0.005649 0.572932
vt 0.073400 0.716233
vt 0.013257 0.748480
vt 0.009751 0.714105
vt 0.060316 0.659680
vt 0.115044 0.639195
vt 0.135568 0.697901
vt 0.043647 0.451026
vt 0.004346 0.461413
vt 0.086170 0.423267
vt 0.098924 0.547442
vt -0.028221 0.459382
vt -0.053640 0.451067
vt -0.034626 0.640286
vt 0.863527 0.611914
vt 0.902873 0.619510
vt -0.109889 0.678028
vt -0.109029 0.411378
vt -0.078530 0.437006
vt 0.818409 0.311385
vt 0.855691 0.369620
vt 0.878552 0.524102
vt 0.890971 0.411378
vt 0.900355 0.746204
vt 0.834752 0.774206
vt 0.823551 0.711186
vt -0.125974 0.717119
vt 0.658532 0.716905
vt 0.707983 0.687901
vt 0.736513 0.653052
vt 0.494957 0.708916
vt 0.579403 0.728147
vt 0.304647 0.766941
vt 0.961923 0.767149
vt 1.186420 0.784348
vt 0.779743 0.539124
vt 0.115044 0.499208
vt 0.135568 0.540578
vt 0.658532 0.553970
vt 0.707983 0.533531
vt 0.890971 0.338667
vt 0.921470 0.356727
vt -0.039345 0.540095
vt -0.082058 0.550895
vt -0.045816 0.566434
vt 0.758374 0.477504
vt 0.775424 0.535386
vt 0.799124 0.507110
vt 0.092231 0.576561
vt 0.205360 0.580837
vt 0.161555 0.564723
vt 0.186420 0.601496
vt 0.430604 0.581014
vt 0.304647 0.589230
vt 0.709025 0.584291
vt 0.826234 0.574736
vt 0.755933 0.562049
vt -0.038077 0.589377
vt -0.099645 0.574617
vt 0.799915 0.358062
vt 0.820577 0.462029
vt 0.839429 0.395498
vt -0.121448 0.418103
vt -0.097127 0.485336
vt -0.086878 0.428155
vt 0.845348 0.522716
vt 0.874026 0.554121
vt 0.890111 0.526573
vt -0.031038 0.443617
vt -0.064787 0.482841
vt -0.034626 0.499977
vt 0.050814 0.451249
vt 0.007371 0.512171
vt 0.060316 0.513644
vt 0.073400 0.553497
vt 0.013257 0.576221
vt 0.009751 0.551997
vt 0.043647 0.366607
vt 0.005649 0.452513
vt 0.086170 0.347045
vt 0.098924 0.434550
vt -0.058662 0.430264
vt -0.028221 0.372495
vt -0.053640 0.366636
vt 0.004346 0.373926
vt 0.863527 0.479983
vt 0.902873 0.485336
vt -0.072398 0.522684
vt -0.109889 0.526573
vt -0.109029 0.338667
vt -0.078530 0.356727
vt 0.818409 0.268202
vt 0.878552 0.418103
vt 0.855691 0.309240
vt 0.834752 0.594349
vt 0.900355 0.574617
vt 0.823551 0.549940
vt -0.125974 0.554121
vt 0.571826 0.593586
vt 0.494957 0.548340
vt 0.579403 0.561892
vt 0.097675 0.592974
vt 1.186420 0.601496
vt 0.961923 0.589377
vt 0.779743 0.428689
vt 0.161555 0.732165
vt -0.136473 0.611914
vt 1.097675 0.772254
vt 0.736513 0.508973
vt 1.043647 0.366607
vt 1.086170 0.347045
vt 1.086170 0.423267
vt 1.043647 0.451026
vt 1.004346 0.461413
vt 1.004346 0.373926
vt 0.971779 0.459382
vt 0.971779 0.372495
vt 0.946360 0.451067
vt 0.946360 0.366636
vt 0.921470 0.437006
vt -0.136473 0.479983
vt 1.097675 0.592974
vn -0.6329 -0.5235 0.5704
vn -0.0984 -0.6414 0.7609
vn -0.6414 -0.7609 0.0984
vn -0.3359 -0.9345 0.1181
vn -0.2841 -0.8101 0.5128
vn -0.5699 -0.6915 0.4440
vn -0.1181 -0.3359 0.9345
vn -0.5128 -0.2841 0.8101
vn -0.4440 -0.5699 0.6915
vn -0.7231 -0.2542 0.6423
vn -0.8880 -0.3134 0.3367
vn -0.7382 -0.6116 0.2846
vn -0.8175 -0.4827 0.3141
vn -0.8521 -0.5118 0.1094
vn -0.7609 -0.6414 0.0984
vn -0.9323 -0.1091 0.3449
vn -0.9856 -0.1178 0.1213
vn -0.9345 -0.3359 0.1181
vn -0.7526 -0.0872 0.6527
vn -0.8465 -0.0981 0.5232
vn -0.8101 -0.2841 0.5128
vn -0.4836 -0.4434 0.7547
vn -0.6124 -0.4016 0.6809
vn -0.5704 -0.5235 0.6329
vn -0.5232 -0.0981 0.8465
vn -0.6527 -0.0872 0.7526
vn -0.6423 -0.2542 0.7231
vn -0.1213 -0.1178 0.9856
vn -0.3449 -0.1091 0.9323
vn -0.3367 -0.3134 0.8880
vn -0.4434 -0.7547 0.4836
vn -0.4016 -0.6809 0.6124
vn -0.5235 -0.6329 0.5704
vn -0.0981 -0.8465 0.5232
vn -0.0872 -0.7526 0.6527
vn -0.2542 -0.7231 0.6423
vn -0.1178 -0.9856 0.1213
vn -0.1091 -0.9323 0.3449
vn -0.3134 -0.8880 0.3367
vn -0.5118 -0.8521 0.1094
vn -0.4827 -0.8175 0.3141
vn -0.6116 -0.7382 0.2846
vn -0.1094 -0.5118 0.8521
vn -0.3141 -0.4827 0.8175
vn -0.2846 -0.6116 0.7382
vn -0.6809 -0.4016 0.6124
vn -0.7547 -0.4434 0.4836
vn -0.6915 -0.5699 0.4440
vn -0.0000 0.0000 -1.0000
vn 1.0000 -0.0000 0.0000
vn -0.0000 1.0000 0.0000
vn 0.6329 0.5704 -0.5235
vn 0.0984 0.6414 -0.7609
vn 0.6527 0.7526 -0.0872
vn 0.3449 0.9323 -0.1091
vn 0.2841 0.8101 -0.5128
vn 0.5699 0.6915 -0.4440
vn 0.1181 0.3359 -0.9345
vn 0.5128 0.2841 -0.8101
vn 0.4440 0.5699 -0.6915
vn 0.7382 0.2846 -0.6116
vn 0.8880 0.3367 -0.3134
vn 0.7231 0.6423 -0.2542
vn 0.8101 0.5128 -0.2841
vn 0.8465 0.5232 -0.0981
vn 0.7609 0.6414 -0.0984
vn 0.9345 0.1181 -0.3359
vn 0.9856 0.1213 -0.1178
vn 0.9323 0.3449 -0.1091
vn 0.7526 0.0872 -0.6527
vn 0.8465 0.0981 -0.5232
vn 0.8175 0.3141 -0.4827
vn 0.4836 0.4434 -0.7547
vn 0.6124 0.4016 -0.6809
vn 0.5704 0.5235 -0.6329
vn 0.5232 0.0981 -0.8465
vn 0.6414 0.0984 -0.7609
vn 0.6423 0.2542 -0.7231
vn 0.1178 0.1213 -0.9856
vn 0.3359 0.1181 -0.9345
vn 0.3367 0.3134 -0.8880
vn 0.4434 0.7547 -0.4836
vn 0.4016 0.6809 -0.6124
vn 0.5235 0.6329 -0.5704
vn 0.1094 0.8521 -0.5118
vn 0.0984 0.7609 -0.6414
vn 0.2542 0.7231 -0.6423
vn 0.1213 0.9856 -0.1178
vn 0.1181 0.9345 -0.3359
vn 0.3134 0.8880 -0.3367
vn 0.5232 0.8465 -0.0981
vn 0.4827 0.8175 -0.3141
vn 0.6116 0.7382 -0.2846
vn 0.0981 0.5232 -0.8465
vn 0.3141 0.4827 -0.8175
vn 0.2846 0.6116 -0.7382
vn 0.6915 0.4440 -0.5699
vn 0.7547 0.4836 -0.4434
vn 0.6809 0.6124 -0.4016
vn -0.6329 -0.5704 0.5235
vn -0.0872 -0.6527 0.7526
vn -0.6527 -0.7526 0.0872
vn -0.3449 -0.9323 0.1091
vn -0.3141 -0.8175 0.4827
vn -0.6124 -0.6809 0.4016
vn -0.1091 -0.3449 0.9323
vn -0.4827 -0.3141 0.8175
vn -0.4016 -0.6124 0.6809
vn -0.7382 -0.2846 0.6116
vn -0.8880 -0.3367 0.3134
vn -0.7231 -0.6423 0.2542
vn -0.8101 -0.5128 0.2841
vn -0.8465 -0.5232 0.0981
vn -0.7526 -0.6527 0.0872
vn -0.9345 -0.1181 0.3359
vn -0.9856 -0.1213 0.1178
vn -0.9323 -0.3449 0.1091
vn -0.7609 -0.0984 0.6414
vn -0.8521 -0.1094 0.5118
vn -0.8175 -0.3141 0.4827
vn -0.4434 -0.4836 0.7547
vn -0.5699 -0.4440 0.6915
vn -0.5235 -0.5704 0.6329
vn -0.5118 -0.1094 0.8521
vn -0.6414 -0.0984 0.7609
vn -0.6116 -0.2846 0.7382
vn -0.1178 -0.1213 0.9856
vn -0.3359 -0.1181 0.9345
vn -0.3134 -0.3367 0.8880
vn -0.4836 -0.7547 0.4434
vn -0.4440 -0.6915 0.5699
vn -0.5704 -0.6329 0.5235
vn -0.1094 -0.8521 0.5118
vn -0.0984 -0.7609 0.6414
vn -0.2846 -0.7382 0.6116
vn -0.1213 -0.9856 0.1178
vn -0.1181 -0.9345 0.3359
vn -0.3367 -0.8880 0.3134
vn -0.5232 -0.8465 0.0981
vn -0.5128 -0.8101 0.2841
vn -0.6423 -0.7231 0.2542
vn -0.0981 -0.5232 0.8465
vn -0.2841 -0.5128 0.8101
vn -0.2542 -0.6423 0.7231
vn -0.6915 -0.4440 0.5699
vn -0.7547 -0.4836 0.4434
vn -0.6809 -0.6124 0.4016
vn 0.6329 0.5235 -0.5704
vn 0.0872 0.6527 -0.7526
vn 0.6414 0.7609 -0.0984
vn 0.3359 0.9345 -0.1181
vn 0.3141 0.8175 -0.4827
vn 0.6124 0.6809 -0.4016
vn 0.1091 0.3449 -0.9323
vn 0.4827 0.3141 -0.8175
vn 0.4016 0.6124 -0.6809
vn 0.7231 0.2542 -0.6423
vn 0.8880 0.3134 -0.3367
vn 0.7382 0.6116 -0.2846
vn 0.8175 0.4827 -0.3141
vn 0.8521 0.5118 -0.1094
vn 0.7526 0.6527 -0.0872
vn 0.9323 0.1091 -0.3449
vn 0.9856 0.1178 -0.1213
vn 0.9345 0.3359 -0.1181
vn 0.7609 0.0984 -0.6414
vn 0.8521 0.1094 -0.5118
vn 0.8101 0.2841 -0.5128
vn 0.4434 0.4836 -0.7547
vn 0.5699 0.4440 -0.6915
vn 0.5235 0.5704 -0.6329
vn 0.5118 0.1094 -0.8521
vn 0.6527 0.0872 -0.7526
vn 0.6116 0.2846 -0.7382
vn 0.1213 0.1178 -0.9856
vn 0.3449 0.1091 -0.9323
vn 0.3134 0.3367 -0.8880
vn 0.4836 0.7547 -0.4434
vn 0.4440 0.6915 -0.5699
vn 0.5704 0.6329 -0.5235
vn 0.0981 0.8465 -0.5232
vn 0.0872 0.7526 -0.6527
vn 0.2846 0.7382 -0.6116
vn 0.1178 0.9856 -0.1213
vn 0.1091 0.9323 -0.3449
vn 0.3367 0.8880 -0.3134
vn 0.5118 0.8521 -0.1094
vn 0.5128 0.8101 -0.2841
vn 0.6423 0.7231 -0.2542
vn 0.1094 0.5118 -0.8521
vn 0.2841 0.5128 -0.8101
vn 0.2542 0.6423 -0.7231
vn 0.6809 0.4016 -0.6124
vn 0.7547 0.4434 -0.4836
vn 0.6915 0.5699 -0.4440
usemtl Material
s off
f 61/1/1 1/2/1 30/3/1
f 22/4/2 33/5/2 60/6/2
f 29/7/3 37/8/3 59/9/3
f 38/10/4 28/11/4 58/12/4
f 39/13/5 40/14/5 57/15/5
f 20/16/6 41/17/6 56/18/6
f 42/19/7 24/20/7 55/21/7
f 43/22/8 44/23/8 54/24/8
f 31/25/9 45/26/9 53/27/9
f 52/28/10 9/29/10 21/30/10
f 51/31/11 19/32/11 48/33/11
f 50/34/12 8/35/12 49/36/12
f 47/37/13 49/36/13 19/32/13
f 14/38/14 50/34/14 47/37/14
f 35/39/15 29/7/15 50/34/15
f 34/40/16 48/33/16 13/41/16
f 6/42/17 51/31/17 34/40/17
f 26/43/18 47/37/18 51/31/18
f 25/44/19 21/30/19 2/45/19
f 13/41/20 52/28/20 25/44/20
f 48/33/21 46/46/21 52/28/21
f 53/27/22 18/47/22 43/48/22
f 30/3/23 43/22/23 9/29/23
f 1/2/24 53/49/24 30/3/24
f 54/24/25 11/50/25 32/51/25
f 21/30/26 32/51/26 2/45/26
f 9/29/27 54/24/27 21/30/27
f 55/21/28 5/52/28 23/53/28
f 44/54/29 23/53/29 11/55/29
f 18/47/30 55/21/30 44/54/30
f 56/56/31 17/57/31 39/13/31
f 31/25/32 39/13/32 10/58/32
f 1/2/33 56/18/33 31/59/33
f 57/15/34 15/60/34 36/61/34
f 22/4/35 36/61/35 4/62/35
f 10/58/36 57/15/36 22/4/36
f 58/12/37 7/63/37 27/64/37
f 40/14/38 27/64/38 15/60/38
f 17/57/39 58/12/39 40/14/39
f 59/9/40 16/65/40 38/10/40
f 41/66/41 38/67/41 17/57/41
f 8/35/42 59/9/42 41/17/42
f 60/6/43 12/68/43 42/19/43
f 45/26/44 42/19/44 18/47/44
f 10/58/45 60/6/45 45/26/45
f 46/46/46 30/3/46 9/29/46
f 19/32/47 61/1/47 46/46/47
f 49/36/48 20/16/48 61/1/48
f 75/69/49 96/70/49 14/38/49
f 76/71/50 97/72/50 15/60/50
f 72/73/51 93/74/51 11/55/51
f 122/75/52 62/76/52 81/77/52
f 94/78/53 83/79/53 121/80/53
f 90/81/54 98/82/54 64/83/54
f 99/84/55 89/85/55 77/86/55
f 101/87/56 100/88/56 118/89/56
f 102/90/57 81/77/57 117/91/57
f 85/92/58 103/93/58 116/94/58
f 105/95/59 104/96/59 115/97/59
f 106/98/60 92/99/60 114/100/60
f 113/101/61 70/102/61 107/103/61
f 112/104/62 80/105/62 108/106/62
f 111/107/63 69/108/63 90/81/63
f 108/106/64 110/109/64 111/107/64
f 75/69/65 111/107/65 96/70/65
f 90/81/66 96/70/66 111/107/66
f 95/110/67 109/111/67 112/104/67
f 67/112/68 112/104/68 87/113/68
f 87/113/69 108/106/69 75/69/69
f 82/114/70 86/115/70 63/116/70
f 113/101/71 74/117/71 86/115/71
f 109/111/72 107/103/72 80/105/72
f 79/118/73 114/100/73 104/119/73
f 104/96/74 91/120/74 70/102/74
f 114/121/75 62/76/75 91/120/75
f 72/122/76 115/97/76 93/123/76
f 82/114/77 93/123/77 115/97/77
f 115/97/78 70/102/78 82/114/78
f 116/94/79 66/124/79 85/92/79
f 105/125/80 84/126/80 116/94/80
f 116/94/81 79/118/81 105/125/81
f 78/127/82 117/128/82 100/88/82
f 100/88/83 92/99/83 71/129/83
f 117/91/84 62/76/84 92/130/84
f 118/89/85 76/71/85 101/87/85
f 83/79/86 97/72/86 118/89/86
f 118/89/87 71/129/87 83/79/87
f 119/131/88 68/132/88 89/85/88
f 101/87/89 88/133/89 119/131/89
f 119/131/90 78/127/90 101/87/90
f 120/134/91 77/86/91 98/82/91
f 99/135/92 102/136/92 78/127/92
f 120/134/93 69/108/93 102/90/93
f 121/80/94 73/137/94 94/78/94
f 103/93/95 106/98/95 79/118/95
f 121/80/96 71/129/96 106/98/96
f 107/103/97 91/120/97 122/75/97
f 80/105/98 122/75/98 110/109/98
f 110/109/99 81/77/99 69/108/99
f 61/1/100 20/16/100 1/2/100
f 22/4/101 4/62/101 33/5/101
f 29/7/102 3/138/102 37/8/102
f 38/10/103 16/65/103 28/11/103
f 39/13/104 17/57/104 40/14/104
f 20/16/105 8/35/105 41/17/105
f 42/19/106 12/68/106 24/20/106
f 43/22/107 18/139/107 44/23/107
f 31/25/108 10/58/108 45/26/108
f 52/28/109 46/46/109 9/29/109
f 51/31/110 47/37/110 19/32/110
f 50/34/111 29/7/111 8/35/111
f 47/37/112 50/34/112 49/36/112
f 14/38/113 35/39/113 50/34/113
f 35/39/114 3/138/114 29/7/114
f 34/40/115 51/31/115 48/33/115
f 6/42/116 26/43/116 51/31/116
f 26/43/117 14/38/117 47/37/117
f 25/44/118 52/28/118 21/30/118
f 13/41/119 48/33/119 52/28/119
f 48/33/120 19/32/120 46/46/120
f 53/27/121 45/26/121 18/47/121
f 30/3/122 53/49/122 43/22/122
f 1/2/123 31/59/123 53/49/123
f 54/24/124 44/23/124 11/50/124
f 21/30/125 54/24/125 32/51/125
f 9/29/126 43/22/126 54/24/126
f 55/21/127 24/20/127 5/52/127
f 44/54/128 55/21/128 23/53/128
f 18/47/129 42/19/129 55/21/129
f 56/56/130 41/66/130 17/57/130
f 31/25/131 56/56/131 39/13/131
f 1/2/132 20/16/132 56/18/132
f 57/15/133 40/14/133 15/60/133
f 22/4/134 57/15/134 36/61/134
f 10/58/135 39/13/135 57/15/135
f 58/12/136 28/11/136 7/63/136
f 40/14/137 58/12/137 27/64/137
f 17/57/138 38/67/138 58/12/138
f 59/9/139 37/8/139 16/65/139
f 41/66/140 59/140/140 38/67/140
f 8/35/141 29/7/141 59/9/141
f 60/6/142 33/5/142 12/68/142
f 45/26/143 60/6/143 42/19/143
f 10/58/144 22/4/144 60/6/144
f 46/46/145 61/1/145 30/3/145
f 19/32/146 49/36/146 61/1/146
f 49/36/147 8/35/147 20/16/147
f 89/85/49 68/132/49 7/63/49
f 7/63/49 28/11/49 89/85/49
f 28/11/49 16/65/49 77/86/49
f 16/65/49 37/8/49 98/82/49
f 37/8/49 3/138/49 64/83/49
f 3/138/49 35/39/49 64/83/49
f 35/39/49 14/38/49 96/70/49
f 64/83/49 35/39/49 96/70/49
f 14/38/49 26/43/49 75/69/49
f 26/43/49 6/42/49 87/113/49
f 75/69/49 26/43/49 87/113/49
f 6/42/49 67/112/49 87/113/49
f 28/11/49 77/86/49 89/85/49
f 37/8/49 64/83/49 98/82/49
f 98/82/49 77/86/49 16/65/49
f 85/92/50 66/124/50 5/52/50
f 5/52/50 24/20/50 85/92/50
f 24/20/50 12/68/50 73/137/50
f 12/68/50 33/5/50 94/78/50
f 33/5/50 4/62/50 65/141/50
f 4/62/50 36/61/50 65/141/50
f 36/61/50 15/60/50 97/72/50
f 65/141/50 36/61/50 97/72/50
f 15/60/50 27/64/50 76/71/50
f 27/64/50 7/63/50 88/133/50
f 76/71/50 27/64/50 88/133/50
f 7/63/50 68/132/50 88/133/50
f 24/20/50 73/137/50 85/92/50
f 33/5/50 65/141/50 94/78/50
f 94/78/50 73/137/50 12/68/50
f 95/142/51 67/143/51 6/144/51
f 6/144/51 34/145/51 95/142/51
f 34/145/51 13/146/51 74/147/51
f 13/146/51 25/148/51 86/149/51
f 25/148/51 2/150/51 63/151/51
f 2/150/51 32/152/51 63/151/51
f 32/152/51 11/55/51 93/74/51
f 63/151/51 32/152/51 93/74/51
f 11/55/51 23/53/51 72/73/51
f 23/53/51 5/52/51 84/126/51
f 72/73/51 23/53/51 84/126/51
f 5/52/51 66/124/51 84/126/51
f 34/145/51 74/147/51 95/142/51
f 25/148/51 63/151/51 86/149/51
f 86/149/51 74/147/51 13/146/51
f 122/75/148 91/120/148 62/76/148
f 94/78/149 65/141/149 83/79/149
f 90/81/150 120/134/150 98/82/150
f 99/84/151 119/131/151 89/85/151
f 101/87/152 78/127/152 100/88/152
f 102/90/153 69/108/153 81/77/153
f 85/92/154 73/137/154 103/93/154
f 105/95/155 79/153/155 104/96/155
f 106/98/156 71/129/156 92/99/156
f 113/101/157 82/114/157 70/102/157
f 112/104/158 109/111/158 80/105/158
f 111/107/159 110/109/159 69/108/159
f 108/106/160 80/105/160 110/109/160
f 75/69/161 108/106/161 111/107/161
f 90/81/162 64/83/162 96/70/162
f 95/110/163 74/117/163 109/111/163
f 67/112/164 95/110/164 112/104/164
f 87/113/165 112/104/165 108/106/165
f 82/114/166 113/101/166 86/115/166
f 113/101/167 109/111/167 74/117/167
f 109/111/168 113/101/168 107/103/168
f 79/118/169 106/98/169 114/100/169
f 104/96/170 114/121/170 91/120/170
f 114/121/171 92/130/171 62/76/171
f 72/122/172 105/95/172 115/97/172
f 82/114/173 63/116/173 93/123/173
f 115/97/174 104/96/174 70/102/174
f 116/94/175 84/126/175 66/124/175
f 105/125/176 72/73/176 84/126/176
f 116/94/177 103/93/177 79/118/177
f 78/127/178 102/136/178 117/128/178
f 100/88/179 117/128/179 92/99/179
f 117/91/180 81/77/180 62/76/180
f 118/89/181 97/72/181 76/71/181
f 83/79/182 65/141/182 97/72/182
f 118/89/183 100/88/183 71/129/183
f 119/131/184 88/133/184 68/132/184
f 101/87/185 76/71/185 88/133/185
f 119/131/186 99/135/186 78/127/186
f 120/134/187 99/84/187 77/86/187
f 99/135/188 120/154/188 102/136/188
f 120/134/189 90/81/189 69/108/189
f 121/80/190 103/93/190 73/137/190
f 103/93/191 121/80/191 106/98/191
f 121/80/192 83/79/192 71/129/192
f 107/103/193 70/102/193 91/120/193
f 80/105/194 107/103/194 122/75/194
f 110/109/195 122/75/195 81/77/195
