# Blender v2.93.5 OBJ File: 'planet.blend'
# www.blender.org
mtllib obj_planet_piece_3.mtl
o Cube.014_Cube.029
v 0.715243 0.715243 0.715243
v 0.000000 0.875990 0.875990
v 0.875990 -0.000000 0.875990
v 0.875990 0.875990 -0.000000
v 0.000000 1.238837 0.000000
v 0.000000 0.000000 1.238837
v 1.238837 -0.000000 -0.000000
v 0.825892 0.412946 0.825892
v 0.412946 0.825892 0.825892
v 0.825892 0.825892 0.412946
v 0.000000 1.108050 0.554025
v 0.554025 1.108050 -0.000000
v 0.000000 0.554025 1.108050
v 0.554025 -0.000000 1.108050
v 1.108050 0.554025 -0.000000
v 1.108050 -0.000000 0.554025
v 1.011506 0.505753 0.505753
v 0.505753 1.011506 0.505753
v 0.505753 0.505753 1.011506
v 0.773896 0.580422 0.773896
v 0.215654 0.862616 0.862616
v 0.862616 0.862616 0.215654
v 0.000000 1.201849 0.300462
v 0.300462 1.201849 -0.000000
v 0.000000 0.743302 0.991070
v 0.300462 -0.000000 1.201849
v 1.201849 0.300462 -0.000000
v 1.201849 -0.000000 0.300462
v 0.862616 0.215654 0.862616
v 0.580422 0.773896 0.773896
v 0.773896 0.773896 0.580422
v 0.000000 0.991070 0.743302
v 0.743303 0.991070 -0.000000
v 0.000000 0.300462 1.201849
v 0.743302 -0.000000 0.991070
v 0.991070 0.743302 -0.000000
v 0.991070 -0.000000 0.743302
v 1.081346 0.270336 0.540673
v 0.920185 0.690139 0.460093
v 1.081346 0.540673 0.270336
v 0.920185 0.460093 0.690139
v 0.540673 1.081346 0.270336
v 0.460093 0.920185 0.690139
v 0.270337 1.081346 0.540673
v 0.690139 0.920185 0.460093
v 0.460093 0.690139 0.920185
v 0.540673 0.270336 1.081346
v 0.270337 0.540673 1.081346
v 0.690139 0.460093 0.920185
v 0.728868 0.242956 0.971824
v 0.291997 0.291997 1.167987
v 0.242956 0.728868 0.971824
v 0.637377 0.849835 0.637377
v 0.242956 0.971824 0.728868
v 0.291997 1.167987 0.291997
v 0.849835 0.637377 0.637377
v 0.971824 0.728868 0.242956
v 1.167987 0.291997 0.291997
v 0.971824 0.242956 0.728868
v 0.728868 0.971824 0.242956
v 0.637377 0.637377 0.849835
v 0.504027 0.504027 0.504027
v 0.000000 0.617305 0.617305
v 0.617305 -0.000000 0.617305
v 0.617305 0.617305 -0.000000
v 0.000000 0.873001 0.000000
v 0.000000 0.000000 0.873001
v 0.873001 -0.000000 -0.000000
v 0.582000 0.291000 0.582000
v 0.291000 0.582000 0.582000
v 0.582000 0.582000 0.291000
v 0.000000 0.780835 0.390418
v 0.390418 0.780835 -0.000000
v 0.000000 0.390418 0.780835
v 0.390418 -0.000000 0.780835
v 0.780835 0.390418 -0.000000
v 0.780835 -0.000000 0.390418
v 0.712802 0.356401 0.356401
v 0.356401 0.712802 0.356401
v 0.356401 0.356401 0.712802
v 0.545359 0.409019 0.545359
v 0.151970 0.607880 0.607880
v 0.607880 0.607880 0.151970
v 0.000000 0.846935 0.211734
v 0.211734 0.846935 -0.000000
v 0.000000 0.523800 0.698400
v 0.211734 -0.000000 0.846935
v 0.846935 0.211734 -0.000000
v 0.846935 -0.000000 0.211734
v 0.607880 0.151970 0.607880
v 0.409019 0.545359 0.545359
v 0.545359 0.545359 0.409019
v 0.000000 0.698400 0.523800
v 0.523800 0.698400 -0.000000
v 0.000000 0.211734 0.846935
v 0.523800 -0.000000 0.698400
v 0.698400 0.523800 -0.000000
v 0.698400 -0.000000 0.523800
v 0.762017 0.190504 0.381009
v 0.648449 0.486336 0.324224
v 0.762017 0.381009 0.190504
v 0.648449 0.324224 0.486336
v 0.381009 0.762017 0.190504
v 0.324224 0.648448 0.486336
v 0.190504 0.762017 0.381009
v 0.486336 0.648448 0.324224
v 0.324224 0.486336 0.648448
v 0.381009 0.190504 0.762017
v 0.190504 0.381009 0.762017
v 0.486336 0.324224 0.648448
v 0.513628 0.171209 0.684838
v 0.205768 0.205768 0.823073
v 0.171210 0.513628 0.684838
v 0.449155 0.598873 0.449155
v 0.171210 0.684838 0.513628
v 0.205768 0.823073 0.205768
v 0.598873 0.449155 0.449155
v 0.684838 0.513628 0.171209
v 0.823073 0.205768 0.205768
v 0.684838 0.171209 0.513628
v 0.513628 0.684838 0.171209
v 0.449155 0.449155 0.598873
vt 0.772792 -0.147092
vt 0.762154 -0.213380
vt 0.787413 -0.204111
vt 0.706161 -0.367741
vt 0.705360 -0.424719
vt 0.748820 -0.384586
vt 0.720473 -0.007406
vt 0.686678 0.046404
vt 0.701662 -0.057930
vt 0.676220 -0.114981
vt 0.626341 -0.049783
vt 0.642104 -0.171893
vt 0.713103 -0.275178
vt 0.660622 -0.265549
vt 0.682046 -0.328566
vt 0.748239 -0.159500
vt 0.717473 -0.147050
vt 0.733851 -0.216435
vt 0.811231 -0.390216
vt 0.930604 -0.424970
vt 0.881901 -0.373877
vt 0.814742 -0.253137
vt 0.861886 -0.301982
vt 0.851325 -0.225991
vt 0.750466 -0.267258
vt 0.768987 -0.328221
vt 0.780271 -0.265424
vt 0.831553 -0.090673
vt 0.815463 -0.185902
vt 0.844854 -0.156581
vt 0.800508 0.114019
vt 0.785439 -0.042812
vt 0.816760 -0.000846
vt 0.742339 0.021367
vt 0.734275 -0.090686
vt 0.757682 -0.071966
vt 0.769081 0.061487
vt 0.752196 0.180516
vt 0.727044 0.127272
vt 0.834994 0.175137
vt 0.849646 0.052770
vt 0.818409 0.311384
vt 0.782956 0.244417
vt 0.862478 -0.044118
vt 0.873670 -0.115942
vt 0.800969 -0.125010
vt 0.813555 -0.324499
vt 0.905974 -0.255803
vt 0.886394 -0.182115
vt -0.118099 -0.373877
vt -0.005043 -0.378605
vt -0.061513 -0.326904
vt -0.138114 -0.301982
vt -0.094026 -0.255803
vt 0.693956 -0.207883
vt 0.733227 -0.320682
vt 0.615044 -0.308883
vt 0.635568 -0.367589
vt 0.661555 -0.401853
vt 0.586170 -0.092955
vt 0.598924 -0.217130
vt 0.660129 -0.000310
vt 0.804647 -0.436629
vt 0.752196 0.175980
vt 0.727044 0.138459
vt 0.615044 -0.168896
vt 0.635568 -0.210266
vt 0.905974 -0.131491
vt 0.886394 -0.079564
vt 0.772792 -0.054883
vt 0.762153 -0.101596
vt 0.748239 -0.063627
vt 0.705360 -0.250525
vt 0.706161 -0.210373
vt 0.748820 -0.222244
vt 0.720473 0.043553
vt 0.686678 0.081472
vt 0.707032 0.109406
vt 0.676220 -0.032255
vt 0.626341 0.013690
vt 0.660129 0.048553
vt 0.660622 -0.138359
vt 0.713103 -0.145144
vt 0.682046 -0.182767
vt 0.717473 -0.054853
vt 0.733851 -0.103749
vt 0.930604 -0.250702
vt 0.811231 -0.226211
vt 0.881901 -0.214697
vt 0.861886 -0.164033
vt 0.814742 -0.129613
vt 0.851325 -0.110483
vt 0.768987 -0.182524
vt 0.750466 -0.139563
vt 0.780271 -0.138271
vt 0.831553 -0.015125
vt 0.815463 -0.082233
vt 0.800969 -0.039322
vt 0.800508 0.129120
vt 0.785439 0.018603
vt 0.769081 0.092101
vt 0.742339 0.063829
vt 0.734275 -0.015134
vt 0.757682 -0.001942
vt 0.834994 0.172190
vt 0.816760 0.048175
vt 0.818409 0.268202
vt 0.782956 0.221011
vt 0.844854 -0.061570
vt 0.862478 0.017682
vt 0.873670 -0.032932
vt 0.849646 0.085958
vt 0.813555 -0.179900
vt 0.787413 -0.095064
vt -0.118099 -0.214697
vt -0.005043 -0.218028
vt -0.069396 -0.250702
vt -0.138114 -0.164033
vt -0.061513 -0.181595
vt 0.693956 -0.097722
vt 0.733227 -0.177211
vt 0.642104 -0.072360
vt 0.586170 -0.016733
vt 0.598924 -0.104238
vt 0.701662 0.007949
vt 0.804647 -0.258918
vt 0.707032 0.086043
vt -0.069396 -0.424970
vt 0.994957 -0.218028
vt 0.994957 -0.378605
vt 0.661555 -0.234411
vt 0.938487 -0.326904
vt 0.938487 -0.181595
vt -0.094026 -0.131491
vn 0.5235 0.5704 0.6329
vn 0.6414 0.7609 0.0984
vn 0.7609 0.0984 0.6414
vn 0.9345 0.1181 0.3359
vn 0.8101 0.5128 0.2841
vn 0.6915 0.4440 0.5699
vn 0.3359 0.9345 0.1181
vn 0.2841 0.8101 0.5128
vn 0.5699 0.6915 0.4440
vn 0.2542 0.6423 0.7231
vn 0.3134 0.3367 0.8880
vn 0.6116 0.2846 0.7382
vn 0.4827 0.3141 0.8175
vn 0.5118 0.1094 0.8521
vn 0.6414 0.0984 0.7609
vn 0.1091 0.3449 0.9323
vn 0.1178 0.1213 0.9856
vn 0.3359 0.1181 0.9345
vn 0.0872 0.6527 0.7526
vn 0.0981 0.5232 0.8465
vn 0.2841 0.5128 0.8101
vn 0.4434 0.7547 0.4836
vn 0.4016 0.6809 0.6124
vn 0.5235 0.6329 0.5704
vn 0.0981 0.8465 0.5232
vn 0.0872 0.7526 0.6527
vn 0.2542 0.7231 0.6423
vn 0.1178 0.9856 0.1213
vn 0.1091 0.9323 0.3449
vn 0.3134 0.8880 0.3367
vn 0.7547 0.4836 0.4434
vn 0.6809 0.6124 0.4016
vn 0.6329 0.5704 0.5235
vn 0.8465 0.5232 0.0981
vn 0.7526 0.6527 0.0872
vn 0.7231 0.6423 0.2542
vn 0.9856 0.1213 0.1178
vn 0.9323 0.3449 0.1091
vn 0.8880 0.3367 0.3134
vn 0.8521 0.1095 0.5118
vn 0.8175 0.3141 0.4827
vn 0.7382 0.2846 0.6116
vn 0.5118 0.8521 0.1094
vn 0.4827 0.8175 0.3141
vn 0.6116 0.7382 0.2846
vn 0.4016 0.6124 0.6809
vn 0.4434 0.4836 0.7547
vn 0.5699 0.4440 0.6915
vn -0.0000 -1.0000 -0.0000
vn -0.0000 -0.0000 -1.0000
vn -1.0000 0.0000 0.0000
vn -0.5704 -0.5235 -0.6329
vn -0.6414 -0.7609 -0.0984
vn -0.7526 -0.0872 -0.6527
vn -0.9323 -0.1091 -0.3449
vn -0.8101 -0.5128 -0.2841
vn -0.6915 -0.4440 -0.5699
vn -0.3359 -0.9345 -0.1181
vn -0.2841 -0.8101 -0.5128
vn -0.5699 -0.6915 -0.4440
vn -0.2846 -0.6116 -0.7382
vn -0.3367 -0.3134 -0.8880
vn -0.6423 -0.2542 -0.7231
vn -0.5128 -0.2841 -0.8101
vn -0.5232 -0.0981 -0.8465
vn -0.6414 -0.0984 -0.7609
vn -0.1181 -0.3359 -0.9345
vn -0.1213 -0.1178 -0.9856
vn -0.3449 -0.1091 -0.9323
vn -0.0872 -0.6527 -0.7526
vn -0.0981 -0.5232 -0.8465
vn -0.3141 -0.4827 -0.8175
vn -0.4434 -0.7547 -0.4836
vn -0.4016 -0.6809 -0.6124
vn -0.5235 -0.6329 -0.5704
vn -0.0981 -0.8465 -0.5232
vn -0.0984 -0.7609 -0.6414
vn -0.2542 -0.7231 -0.6423
vn -0.1213 -0.9856 -0.1178
vn -0.1181 -0.9345 -0.3359
vn -0.3134 -0.8880 -0.3367
vn -0.7547 -0.4836 -0.4434
vn -0.6809 -0.6124 -0.4016
vn -0.6329 -0.5704 -0.5235
vn -0.8521 -0.5118 -0.1094
vn -0.7609 -0.6414 -0.0984
vn -0.7231 -0.6423 -0.2542
vn -0.9856 -0.1178 -0.1213
vn -0.9345 -0.3359 -0.1181
vn -0.8880 -0.3367 -0.3134
vn -0.8465 -0.0981 -0.5232
vn -0.8175 -0.3141 -0.4827
vn -0.7382 -0.2846 -0.6116
vn -0.5232 -0.8465 -0.0981
vn -0.4827 -0.8175 -0.3141
vn -0.6116 -0.7382 -0.2846
vn -0.4440 -0.5699 -0.6915
vn -0.4836 -0.4434 -0.7547
vn -0.6124 -0.4016 -0.6809
vn 0.5704 0.5235 0.6329
vn 0.6527 0.7526 0.0872
vn 0.7526 0.0872 0.6527
vn 0.9323 0.1091 0.3449
vn 0.8175 0.4827 0.3141
vn 0.6809 0.4016 0.6124
vn 0.3449 0.9323 0.1091
vn 0.3141 0.8175 0.4827
vn 0.6124 0.6809 0.4016
vn 0.2846 0.6116 0.7382
vn 0.3367 0.3134 0.8880
vn 0.6423 0.2542 0.7231
vn 0.5128 0.2841 0.8101
vn 0.5232 0.0981 0.8465
vn 0.6527 0.0872 0.7526
vn 0.1181 0.3359 0.9345
vn 0.1213 0.1178 0.9856
vn 0.3449 0.1091 0.9323
vn 0.0984 0.6414 0.7609
vn 0.1094 0.5118 0.8521
vn 0.3141 0.4827 0.8175
vn 0.4836 0.7547 0.4434
vn 0.4440 0.6915 0.5699
vn 0.5704 0.6329 0.5235
vn 0.1094 0.8521 0.5118
vn 0.0984 0.7609 0.6414
vn 0.2846 0.7382 0.6116
vn 0.1213 0.9856 0.1178
vn 0.1181 0.9345 0.3359
vn 0.3367 0.8880 0.3134
vn 0.7547 0.4434 0.4836
vn 0.6915 0.5699 0.4440
vn 0.6329 0.5235 0.5704
vn 0.8521 0.5118 0.1094
vn 0.7609 0.6414 0.0984
vn 0.7382 0.6116 0.2846
vn 0.9856 0.1178 0.1213
vn 0.9345 0.3359 0.1181
vn 0.8880 0.3134 0.3367
vn 0.8465 0.0981 0.5232
vn 0.8101 0.2841 0.5128
vn 0.7231 0.2542 0.6423
vn 0.5232 0.8465 0.0981
vn 0.5128 0.8101 0.2841
vn 0.6423 0.7231 0.2542
vn 0.4440 0.5699 0.6915
vn 0.4836 0.4434 0.7547
vn 0.6124 0.4016 0.6809
vn -0.5235 -0.5704 -0.6329
vn -0.6527 -0.7526 -0.0872
vn -0.7609 -0.0984 -0.6414
vn -0.9345 -0.1181 -0.3359
vn -0.8175 -0.4827 -0.3141
vn -0.6809 -0.4016 -0.6124
vn -0.3449 -0.9323 -0.1091
vn -0.3141 -0.8175 -0.4827
vn -0.6124 -0.6809 -0.4016
vn -0.2542 -0.6423 -0.7231
vn -0.3134 -0.3367 -0.8880
vn -0.6116 -0.2846 -0.7382
vn -0.4827 -0.3141 -0.8175
vn -0.5118 -0.1094 -0.8521
vn -0.6527 -0.0872 -0.7526
vn -0.1091 -0.3449 -0.9323
vn -0.1178 -0.1213 -0.9856
vn -0.3359 -0.1181 -0.9345
vn -0.0984 -0.6414 -0.7609
vn -0.1094 -0.5118 -0.8521
vn -0.2841 -0.5128 -0.8101
vn -0.4836 -0.7547 -0.4434
vn -0.4440 -0.6915 -0.5699
vn -0.5704 -0.6329 -0.5235
vn -0.1094 -0.8521 -0.5118
vn -0.0872 -0.7526 -0.6527
vn -0.2846 -0.7382 -0.6116
vn -0.1178 -0.9856 -0.1213
vn -0.1091 -0.9323 -0.3449
vn -0.3367 -0.8880 -0.3134
vn -0.7547 -0.4434 -0.4836
vn -0.6915 -0.5699 -0.4440
vn -0.6329 -0.5235 -0.5704
vn -0.8465 -0.5232 -0.0981
vn -0.7526 -0.6527 -0.0872
vn -0.7382 -0.6116 -0.2846
vn -0.9856 -0.1213 -0.1178
vn -0.9323 -0.3449 -0.1091
vn -0.8880 -0.3134 -0.3367
vn -0.8521 -0.1094 -0.5118
vn -0.8101 -0.2841 -0.5128
vn -0.7231 -0.2542 -0.6423
vn -0.5118 -0.8521 -0.1094
vn -0.5128 -0.8101 -0.2841
vn -0.6423 -0.7231 -0.2542
vn -0.4016 -0.6124 -0.6809
vn -0.4434 -0.4836 -0.7547
vn -0.5699 -0.4440 -0.6915
usemtl Material
s off
f 61/1/1 1/2/1 30/3/1
f 22/4/2 33/5/2 60/6/2
f 29/7/3 37/8/3 59/9/3
f 38/10/4 28/11/4 58/12/4
f 39/13/5 40/14/5 57/15/5
f 20/16/6 41/17/6 56/18/6
f 42/19/7 24/20/7 55/21/7
f 43/22/8 44/23/8 54/24/8
f 31/25/9 45/26/9 53/27/9
f 52/28/10 9/29/10 21/30/10
f 51/31/11 19/32/11 48/33/11
f 50/34/12 8/35/12 49/36/12
f 47/37/13 49/36/13 19/32/13
f 14/38/14 50/34/14 47/37/14
f 35/39/15 29/7/15 50/34/15
f 34/40/16 48/33/16 13/41/16
f 6/42/17 51/31/17 34/40/17
f 26/43/18 47/37/18 51/31/18
f 25/44/19 21/30/19 2/45/19
f 13/41/20 52/28/20 25/44/20
f 48/33/21 46/46/21 52/28/21
f 53/27/22 18/47/22 43/22/22
f 30/3/23 43/22/23 9/29/23
f 1/2/24 53/27/24 30/3/24
f 54/24/25 11/48/25 32/49/25
f 21/30/26 32/49/26 2/45/26
f 9/29/27 54/24/27 21/30/27
f 55/50/28 5/51/28 23/52/28
f 44/53/29 23/52/29 11/54/29
f 18/47/30 55/21/30 44/23/30
f 56/18/31 17/55/31 39/13/31
f 31/25/32 39/13/32 10/56/32
f 1/2/33 56/18/33 31/25/33
f 57/15/34 15/57/34 36/58/34
f 22/4/35 36/58/35 4/59/35
f 10/56/36 57/15/36 22/4/36
f 58/12/37 7/60/37 27/61/37
f 40/14/38 27/61/38 15/57/38
f 17/55/39 58/12/39 40/14/39
f 59/9/40 16/62/40 38/10/40
f 41/17/41 38/10/41 17/55/41
f 8/35/42 59/9/42 41/17/42
f 60/6/43 12/63/43 42/19/43
f 45/26/44 42/19/44 18/47/44
f 10/56/45 60/6/45 45/26/45
f 46/46/46 30/3/46 9/29/46
f 19/32/47 61/1/47 46/46/47
f 49/36/48 20/16/48 61/1/48
f 75/64/49 96/65/49 14/38/49
f 76/66/50 97/67/50 15/57/50
f 72/68/51 93/69/51 11/48/51
f 122/70/52 62/71/52 81/72/52
f 94/73/53 83/74/53 121/75/53
f 90/76/54 98/77/54 64/78/54
f 99/79/55 89/80/55 77/81/55
f 101/82/56 100/83/56 118/84/56
f 102/85/57 81/72/57 117/86/57
f 85/87/58 103/88/58 116/89/58
f 105/90/59 104/91/59 115/92/59
f 106/93/60 92/94/60 114/95/60
f 113/96/61 70/97/61 107/98/61
f 112/99/62 80/100/62 108/101/62
f 111/102/63 69/103/63 90/76/63
f 108/101/64 110/104/64 111/102/64
f 75/64/65 111/102/65 96/65/65
f 90/76/66 96/65/66 111/102/66
f 95/105/67 109/106/67 112/99/67
f 67/107/68 112/99/68 87/108/68
f 87/108/69 108/101/69 75/64/69
f 82/109/70 86/110/70 63/111/70
f 113/96/71 74/112/71 86/110/71
f 109/106/72 107/98/72 80/100/72
f 79/113/73 114/95/73 104/91/73
f 104/91/74 91/114/74 70/97/74
f 114/95/75 62/71/75 91/114/75
f 72/68/76 115/92/76 93/69/76
f 82/109/77 93/69/77 115/92/77
f 115/92/78 70/97/78 82/109/78
f 116/115/79 66/116/79 85/117/79
f 105/118/80 84/119/80 116/115/80
f 116/89/81 79/113/81 105/90/81
f 78/120/82 117/86/82 100/83/82
f 100/83/83 92/94/83 71/121/83
f 117/86/84 62/71/84 92/94/84
f 118/84/85 76/66/85 101/82/85
f 83/74/86 97/67/86 118/84/86
f 118/84/87 71/121/87 83/74/87
f 119/122/88 68/123/88 89/80/88
f 101/82/89 88/124/89 119/122/89
f 119/122/90 78/120/90 101/82/90
f 120/125/91 77/81/91 98/77/91
f 99/79/92 102/85/92 78/120/92
f 120/125/93 69/103/93 102/85/93
f 121/75/94 73/126/94 94/73/94
f 103/88/95 106/93/95 79/113/95
f 121/75/96 71/121/96 106/93/96
f 107/98/97 91/114/97 122/70/97
f 80/100/98 122/70/98 110/104/98
f 110/104/99 81/72/99 69/103/99
f 61/1/100 20/16/100 1/2/100
f 22/4/101 4/59/101 33/5/101
f 29/7/102 3/127/102 37/8/102
f 38/10/103 16/62/103 28/11/103
f 39/13/104 17/55/104 40/14/104
f 20/16/105 8/35/105 41/17/105
f 42/19/106 12/63/106 24/20/106
f 43/22/107 18/47/107 44/23/107
f 31/25/108 10/56/108 45/26/108
f 52/28/109 46/46/109 9/29/109
f 51/31/110 47/37/110 19/32/110
f 50/34/111 29/7/111 8/35/111
f 47/37/112 50/34/112 49/36/112
f 14/38/113 35/39/113 50/34/113
f 35/39/114 3/127/114 29/7/114
f 34/40/115 51/31/115 48/33/115
f 6/42/116 26/43/116 51/31/116
f 26/43/117 14/38/117 47/37/117
f 25/44/118 52/28/118 21/30/118
f 13/41/119 48/33/119 52/28/119
f 48/33/120 19/32/120 46/46/120
f 53/27/121 45/26/121 18/47/121
f 30/3/122 53/27/122 43/22/122
f 1/2/123 31/25/123 53/27/123
f 54/24/124 44/23/124 11/48/124
f 21/30/125 54/24/125 32/49/125
f 9/29/126 43/22/126 54/24/126
f 55/50/127 24/128/127 5/51/127
f 44/53/128 55/50/128 23/52/128
f 18/47/129 42/19/129 55/21/129
f 56/18/130 41/17/130 17/55/130
f 31/25/131 56/18/131 39/13/131
f 1/2/132 20/16/132 56/18/132
f 57/15/133 40/14/133 15/57/133
f 22/4/134 57/15/134 36/58/134
f 10/56/135 39/13/135 57/15/135
f 58/12/136 28/11/136 7/60/136
f 40/14/137 58/12/137 27/61/137
f 17/55/138 38/10/138 58/12/138
f 59/9/139 37/8/139 16/62/139
f 41/17/140 59/9/140 38/10/140
f 8/35/141 29/7/141 59/9/141
f 60/6/142 33/5/142 12/63/142
f 45/26/143 60/6/143 42/19/143
f 10/56/144 22/4/144 60/6/144
f 46/46/145 61/1/145 30/3/145
f 19/32/146 49/36/146 61/1/146
f 49/36/147 8/35/147 20/16/147
f 89/80/49 68/123/49 7/60/49
f 7/60/49 28/11/49 89/80/49
f 28/11/49 16/62/49 77/81/49
f 16/62/49 37/8/49 98/77/49
f 37/8/49 3/127/49 64/78/49
f 3/127/49 35/39/49 64/78/49
f 35/39/49 14/38/49 96/65/49
f 64/78/49 35/39/49 96/65/49
f 14/38/49 26/43/49 75/64/49
f 26/43/49 6/42/49 87/108/49
f 75/64/49 26/43/49 87/108/49
f 6/42/49 67/107/49 87/108/49
f 28/11/49 77/81/49 89/80/49
f 37/8/49 64/78/49 98/77/49
f 98/77/49 77/81/49 16/62/49
f 85/87/50 66/129/50 5/130/50
f 5/130/50 24/20/50 85/87/50
f 24/20/50 12/63/50 73/126/50
f 12/63/50 33/5/50 94/73/50
f 33/5/50 4/59/50 65/131/50
f 4/59/50 36/58/50 65/131/50
f 36/58/50 15/57/50 97/67/50
f 65/131/50 36/58/50 97/67/50
f 15/57/50 27/61/50 76/66/50
f 27/61/50 7/60/50 88/124/50
f 76/66/50 27/61/50 88/124/50
f 7/60/50 68/123/50 88/124/50
f 24/20/50 73/126/50 85/87/50
f 33/5/50 65/131/50 94/73/50
f 94/73/50 73/126/50 12/63/50
f 95/105/51 67/107/51 6/42/51
f 6/42/51 34/40/51 95/105/51
f 34/40/51 13/41/51 74/112/51
f 13/41/51 25/44/51 86/110/51
f 25/44/51 2/45/51 63/111/51
f 2/45/51 32/49/51 63/111/51
f 32/49/51 11/48/51 93/69/51
f 63/111/51 32/49/51 93/69/51
f 11/48/51 23/132/51 72/68/51
f 23/132/51 5/130/51 84/133/51
f 72/68/51 23/132/51 84/133/51
f 5/130/51 66/129/51 84/133/51
f 34/40/51 74/112/51 95/105/51
f 25/44/51 63/111/51 86/110/51
f 86/110/51 74/112/51 13/41/51
f 122/70/148 91/114/148 62/71/148
f 94/73/149 65/131/149 83/74/149
f 90/76/150 120/125/150 98/77/150
f 99/79/151 119/122/151 89/80/151
f 101/82/152 78/120/152 100/83/152
f 102/85/153 69/103/153 81/72/153
f 85/87/154 73/126/154 103/88/154
f 105/90/155 79/113/155 104/91/155
f 106/93/156 71/121/156 92/94/156
f 113/96/157 82/109/157 70/97/157
f 112/99/158 109/106/158 80/100/158
f 111/102/159 110/104/159 69/103/159
f 108/101/160 80/100/160 110/104/160
f 75/64/161 108/101/161 111/102/161
f 90/76/162 64/78/162 96/65/162
f 95/105/163 74/112/163 109/106/163
f 67/107/164 95/105/164 112/99/164
f 87/108/165 112/99/165 108/101/165
f 82/109/166 113/96/166 86/110/166
f 113/96/167 109/106/167 74/112/167
f 109/106/168 113/96/168 107/98/168
f 79/113/169 106/93/169 114/95/169
f 104/91/170 114/95/170 91/114/170
f 114/95/171 92/94/171 62/71/171
f 72/68/172 105/90/172 115/92/172
f 82/109/173 63/111/173 93/69/173
f 115/92/174 104/91/174 70/97/174
f 116/115/175 84/119/175 66/116/175
f 105/118/176 72/134/176 84/119/176
f 116/89/177 103/88/177 79/113/177
f 78/120/178 102/85/178 117/86/178
f 100/83/179 117/86/179 92/94/179
f 117/86/180 81/72/180 62/71/180
f 118/84/181 97/67/181 76/66/181
f 83/74/182 65/131/182 97/67/182
f 118/84/183 100/83/183 71/121/183
f 119/122/184 88/124/184 68/123/184
f 101/82/185 76/66/185 88/124/185
f 119/122/186 99/79/186 78/120/186
f 120/125/187 99/79/187 77/81/187
f 99/79/188 120/125/188 102/85/188
f 120/125/189 90/76/189 69/103/189
f 121/75/190 103/88/190 73/126/190
f 103/88/191 121/75/191 106/93/191
f 121/75/192 83/74/192 71/121/192
f 107/98/193 70/97/193 91/114/193
f 80/100/194 107/98/194 122/70/194
f 110/104/195 122/70/195 81/72/195
