# Blender v2.93.5 OBJ File: 'planet.blend'
# www.blender.org
mtllib obj_planet_piece_1.mtl
o Cube.017_Cube.032
v -0.715243 0.715243 -0.715243
v -0.000000 0.875990 -0.875990
v -0.875991 -0.000000 -0.875990
v -0.875990 0.875990 0.000000
v -0.000000 1.238837 0.000000
v -0.000001 0.000000 -1.238837
v -1.238837 -0.000000 0.000001
v -0.825892 0.412946 -0.825891
v -0.412946 0.825892 -0.825891
v -0.825892 0.825892 -0.412945
v -0.000000 1.108050 -0.554025
v -0.554025 1.108050 0.000000
v -0.000001 0.554025 -1.108050
v -0.554025 -0.000000 -1.108049
v -1.108050 0.554025 0.000001
v -1.108050 -0.000000 -0.554024
v -1.011507 0.505753 -0.505753
v -0.505754 1.011506 -0.505753
v -0.505754 0.505753 -1.011506
v -0.773896 0.580422 -0.773895
v -0.215654 0.862616 -0.862616
v -0.862616 0.862616 -0.215653
v -0.000000 1.201849 -0.300462
v -0.300462 1.201849 0.000000
v -0.000001 0.743302 -0.991070
v -0.300463 -0.000000 -1.201849
v -1.201849 0.300462 0.000001
v -1.201849 -0.000000 -0.300462
v -0.862616 0.215654 -0.862615
v -0.580422 0.773896 -0.773895
v -0.773896 0.773896 -0.580421
v -0.000000 0.991070 -0.743302
v -0.743303 0.991070 0.000000
v -0.000001 0.300462 -1.201849
v -0.743303 -0.000000 -0.991070
v -0.991070 0.743302 0.000000
v -0.991070 -0.000000 -0.743302
v -1.081346 0.270336 -0.540672
v -0.920186 0.690139 -0.460092
v -1.081346 0.540673 -0.270336
v -0.920186 0.460093 -0.690138
v -0.540673 1.081346 -0.270336
v -0.460093 0.920185 -0.690139
v -0.270337 1.081346 -0.540673
v -0.690139 0.920185 -0.460092
v -0.460093 0.690139 -0.920185
v -0.540673 0.270336 -1.081346
v -0.270337 0.540673 -1.081346
v -0.690139 0.460093 -0.920185
v -0.728868 0.242956 -0.971824
v -0.291997 0.291997 -1.167987
v -0.242957 0.728868 -0.971824
v -0.637377 0.849835 -0.637376
v -0.242956 0.971824 -0.728868
v -0.291997 1.167987 -0.291997
v -0.849836 0.637377 -0.637376
v -0.971824 0.728868 -0.242956
v -1.167987 0.291997 -0.291996
v -0.971824 0.242956 -0.728867
v -0.728868 0.971824 -0.242956
v -0.637377 0.637377 -0.849835
v -0.504027 0.504027 -0.504027
v -0.000000 0.617305 -0.617305
v -0.617305 -0.000000 -0.617304
v -0.617305 0.617305 0.000000
v -0.000000 0.873001 0.000000
v -0.000000 0.000000 -0.873001
v -0.873001 -0.000000 0.000000
v -0.582001 0.291000 -0.582000
v -0.291000 0.582000 -0.582000
v -0.582001 0.582000 -0.291000
v -0.000000 0.780835 -0.390418
v -0.390418 0.780835 0.000000
v -0.000000 0.390418 -0.780835
v -0.390418 -0.000000 -0.780835
v -0.780835 0.390418 0.000000
v -0.780836 -0.000000 -0.390417
v -0.712802 0.356401 -0.356401
v -0.356401 0.712802 -0.356401
v -0.356401 0.356401 -0.712802
v -0.545359 0.409019 -0.545359
v -0.151970 0.607880 -0.607879
v -0.607880 0.607880 -0.151970
v -0.000000 0.846935 -0.211734
v -0.211734 0.846935 0.000000
v -0.000000 0.523800 -0.698400
v -0.211734 -0.000000 -0.846935
v -0.846935 0.211734 0.000000
v -0.846935 -0.000000 -0.211733
v -0.607880 0.151970 -0.607879
v -0.409020 0.545359 -0.545359
v -0.545359 0.545359 -0.409019
v -0.000000 0.698400 -0.523800
v -0.523800 0.698400 0.000000
v -0.000000 0.211734 -0.846935
v -0.523801 -0.000000 -0.698400
v -0.698400 0.523800 0.000000
v -0.698401 -0.000000 -0.523800
v -0.762017 0.190504 -0.381008
v -0.648449 0.486336 -0.324224
v -0.762017 0.381009 -0.190504
v -0.648449 0.324224 -0.486336
v -0.381009 0.762017 -0.190504
v -0.324225 0.648448 -0.486336
v -0.190505 0.762017 -0.381009
v -0.486337 0.648448 -0.324224
v -0.324225 0.486336 -0.648448
v -0.381009 0.190504 -0.762017
v -0.190505 0.381009 -0.762017
v -0.486337 0.324224 -0.648448
v -0.513629 0.171209 -0.684838
v -0.205769 0.205768 -0.823073
v -0.171210 0.513628 -0.684838
v -0.449155 0.598873 -0.449155
v -0.171210 0.684838 -0.513628
v -0.205768 0.823073 -0.205768
v -0.598874 0.449155 -0.449155
v -0.684838 0.513628 -0.171209
v -0.823073 0.205768 -0.205768
v -0.684838 0.171209 -0.513628
v -0.513629 0.684838 -0.171209
v -0.449155 0.449155 -0.598873
vt 0.184020 -0.082121
vt 0.159617 -0.084188
vt 0.171250 -0.144946
vt 0.083997 -0.059200
vt 0.048753 -0.114986
vt 0.083553 -0.138223
vt 0.194119 0.148405
vt 0.186678 0.283908
vt 0.172701 0.174962
vt 0.145749 0.207977
vt 0.126341 0.380095
vt 0.113009 0.245874
vt 0.121807 -0.000353
vt 0.101734 0.121228
vt 0.092165 0.019037
vt 0.170348 -0.019715
vt 0.159825 0.073467
vt 0.148073 -0.012777
vt 0.082881 -0.228738
vt 0.023912 -0.299768
vt 0.081743 -0.321135
vt 0.159354 -0.224341
vt 0.136376 -0.316972
vt 0.178302 -0.296818
vt 0.137416 -0.081799
vt 0.116980 -0.149257
vt 0.146545 -0.150297
vt 0.226229 -0.218856
vt 0.186685 -0.208799
vt 0.207656 -0.270359
vt 0.264413 -0.040037
vt 0.218319 -0.070855
vt 0.245326 -0.143474
vt 0.212073 0.095664
vt 0.181863 0.058491
vt 0.197669 -0.001617
vt 0.235146 0.031508
vt 0.252196 0.149796
vt 0.227044 0.203040
vt 0.299915 -0.108588
vt 0.279743 -0.208812
vt 0.318409 0.018928
vt 0.282956 0.085895
vt 0.258374 -0.278083
vt 0.236513 -0.322740
vt 0.202069 -0.150521
vt 0.124401 -0.233146
vt 0.158532 -0.386593
vt 0.207983 -0.357589
vt -0.005043 -0.378604
vt 0.079403 -0.397835
vt 0.133019 0.094216
vt 0.111950 -0.074019
vt 0.067640 0.152841
vt 0.060786 0.045389
vt 0.055056 -0.036828
vt 0.086170 0.423267
vt 0.075950 0.283680
vt 0.160129 0.330623
vt 0.039338 -0.205767
vt 0.252196 0.154332
vt 0.227044 0.191853
vt 0.067640 0.156478
vt 0.060786 0.080757
vt 0.158532 -0.223658
vt 0.207983 -0.203219
vt 0.184020 -0.009098
vt 0.159617 -0.010555
vt 0.170348 0.034879
vt 0.048753 -0.032258
vt 0.083997 0.007054
vt 0.083553 -0.048633
vt 0.194119 0.153352
vt 0.186678 0.248840
vt 0.207032 0.220907
vt 0.145749 0.195331
vt 0.126341 0.316622
vt 0.160129 0.281759
vt 0.101734 0.134200
vt 0.121807 0.048523
vt 0.092165 0.062187
vt 0.159825 0.100543
vt 0.148073 0.039768
vt 0.023912 -0.162473
vt 0.082881 -0.112418
vt 0.081743 -0.177530
vt 0.136376 -0.174596
vt 0.159354 -0.109320
vt 0.178302 -0.160394
vt 0.116980 -0.056408
vt 0.137416 -0.008871
vt 0.146545 -0.057142
vt 0.226229 -0.105454
vt 0.186685 -0.098368
vt 0.202069 -0.057299
vt 0.264413 0.020558
vt 0.218319 -0.001159
vt 0.235146 0.070975
vt 0.212073 0.116186
vt 0.181863 0.089990
vt 0.197669 0.047632
vt 0.299915 -0.027749
vt 0.245326 -0.052334
vt 0.318409 0.062110
vt 0.282956 0.109301
vt 0.207656 -0.141749
vt 0.258374 -0.147191
vt 0.236513 -0.178661
vt 0.279743 -0.098376
vt 0.124401 -0.115525
vt 0.171250 -0.053371
vt -0.005043 -0.218028
vt 0.079403 -0.231580
vt 0.133019 0.115165
vt 0.111950 -0.003389
vt 0.113009 0.222037
vt 0.086170 0.347045
vt 0.075950 0.248679
vt 0.172701 0.172066
vt 0.039338 -0.096231
vt 0.207032 0.244269
vt 0.055056 0.022819
vn -0.5235 0.5704 -0.6329
vn -0.6414 0.7609 -0.0984
vn -0.7609 0.0984 -0.6414
vn -0.9345 0.1181 -0.3359
vn -0.8101 0.5128 -0.2841
vn -0.6915 0.4440 -0.5699
vn -0.3359 0.9345 -0.1181
vn -0.2841 0.8101 -0.5128
vn -0.5699 0.6915 -0.4440
vn -0.2542 0.6423 -0.7231
vn -0.3134 0.3367 -0.8880
vn -0.6116 0.2846 -0.7382
vn -0.4827 0.3141 -0.8175
vn -0.5118 0.1094 -0.8521
vn -0.6414 0.0984 -0.7609
vn -0.1091 0.3449 -0.9323
vn -0.1178 0.1213 -0.9856
vn -0.3359 0.1181 -0.9345
vn -0.0872 0.6527 -0.7526
vn -0.0981 0.5232 -0.8465
vn -0.2841 0.5128 -0.8101
vn -0.4434 0.7547 -0.4836
vn -0.4016 0.6809 -0.6124
vn -0.5235 0.6329 -0.5704
vn -0.0981 0.8465 -0.5232
vn -0.0872 0.7526 -0.6527
vn -0.2542 0.7231 -0.6423
vn -0.1178 0.9856 -0.1213
vn -0.1091 0.9323 -0.3449
vn -0.3134 0.8880 -0.3367
vn -0.7547 0.4836 -0.4434
vn -0.6809 0.6124 -0.4016
vn -0.6329 0.5704 -0.5235
vn -0.8465 0.5232 -0.0981
vn -0.7526 0.6527 -0.0872
vn -0.7231 0.6423 -0.2542
vn -0.9856 0.1213 -0.1178
vn -0.9323 0.3449 -0.1091
vn -0.8880 0.3367 -0.3134
vn -0.8521 0.1094 -0.5118
vn -0.8175 0.3141 -0.4827
vn -0.7382 0.2846 -0.6116
vn -0.5118 0.8521 -0.1094
vn -0.4827 0.8175 -0.3141
vn -0.6116 0.7382 -0.2846
vn -0.4016 0.6124 -0.6809
vn -0.4434 0.4836 -0.7547
vn -0.5699 0.4440 -0.6915
vn 0.0000 -1.0000 -0.0000
vn 0.0000 0.0000 1.0000
vn 1.0000 0.0000 -0.0000
vn 0.5704 -0.5235 0.6329
vn 0.6414 -0.7609 0.0984
vn 0.7526 -0.0872 0.6527
vn 0.9323 -0.1091 0.3449
vn 0.8101 -0.5128 0.2841
vn 0.6915 -0.4440 0.5699
vn 0.3359 -0.9345 0.1181
vn 0.2841 -0.8101 0.5128
vn 0.5699 -0.6915 0.4440
vn 0.2846 -0.6116 0.7382
vn 0.3367 -0.3134 0.8880
vn 0.6423 -0.2542 0.7231
vn 0.5128 -0.2841 0.8101
vn 0.5232 -0.0981 0.8465
vn 0.6414 -0.0984 0.7609
vn 0.1181 -0.3359 0.9345
vn 0.1213 -0.1178 0.9856
vn 0.3449 -0.1091 0.9323
vn 0.0872 -0.6527 0.7526
vn 0.0981 -0.5232 0.8465
vn 0.3141 -0.4827 0.8175
vn 0.4434 -0.7547 0.4836
vn 0.4016 -0.6809 0.6124
vn 0.5235 -0.6329 0.5704
vn 0.0981 -0.8465 0.5232
vn 0.0984 -0.7609 0.6414
vn 0.2542 -0.7231 0.6423
vn 0.1213 -0.9856 0.1178
vn 0.1181 -0.9345 0.3359
vn 0.3134 -0.8880 0.3367
vn 0.7547 -0.4836 0.4434
vn 0.6809 -0.6124 0.4016
vn 0.6329 -0.5704 0.5235
vn 0.8521 -0.5118 0.1094
vn 0.7609 -0.6414 0.0984
vn 0.7231 -0.6423 0.2542
vn 0.9856 -0.1178 0.1213
vn 0.9345 -0.3359 0.1181
vn 0.8880 -0.3367 0.3134
vn 0.8465 -0.0981 0.5232
vn 0.8175 -0.3141 0.4827
vn 0.7382 -0.2846 0.6116
vn 0.5232 -0.8465 0.0981
vn 0.4827 -0.8175 0.3141
vn 0.6116 -0.7382 0.2846
vn 0.4440 -0.5699 0.6915
vn 0.4836 -0.4434 0.7547
vn 0.6124 -0.4016 0.6809
vn -0.5704 0.5235 -0.6329
vn -0.6527 0.7526 -0.0872
vn -0.7526 0.0872 -0.6527
vn -0.9323 0.1091 -0.3449
vn -0.8175 0.4827 -0.3141
vn -0.6809 0.4016 -0.6124
vn -0.3449 0.9323 -0.1091
vn -0.3141 0.8175 -0.4827
vn -0.6124 0.6809 -0.4016
vn -0.2846 0.6116 -0.7382
vn -0.3367 0.3134 -0.8880
vn -0.6423 0.2542 -0.7231
vn -0.5128 0.2841 -0.8101
vn -0.5232 0.0981 -0.8465
vn -0.6527 0.0872 -0.7526
vn -0.1181 0.3359 -0.9345
vn -0.1213 0.1178 -0.9856
vn -0.3449 0.1091 -0.9323
vn -0.0984 0.6414 -0.7609
vn -0.1094 0.5118 -0.8521
vn -0.3141 0.4827 -0.8175
vn -0.4836 0.7547 -0.4434
vn -0.4440 0.6915 -0.5699
vn -0.5704 0.6329 -0.5235
vn -0.1094 0.8521 -0.5118
vn -0.0984 0.7609 -0.6414
vn -0.2846 0.7382 -0.6116
vn -0.1213 0.9856 -0.1178
vn -0.1181 0.9345 -0.3359
vn -0.3367 0.8880 -0.3134
vn -0.7547 0.4434 -0.4836
vn -0.6915 0.5699 -0.4440
vn -0.6329 0.5235 -0.5704
vn -0.8521 0.5118 -0.1094
vn -0.7609 0.6414 -0.0984
vn -0.7382 0.6116 -0.2846
vn -0.9856 0.1178 -0.1213
vn -0.9345 0.3359 -0.1181
vn -0.8880 0.3134 -0.3367
vn -0.8465 0.0981 -0.5232
vn -0.8101 0.2841 -0.5128
vn -0.7231 0.2542 -0.6423
vn -0.5232 0.8465 -0.0981
vn -0.5128 0.8101 -0.2841
vn -0.6423 0.7231 -0.2542
vn -0.4440 0.5699 -0.6915
vn -0.4836 0.4434 -0.7547
vn -0.6124 0.4016 -0.6809
vn 0.5235 -0.5704 0.6329
vn 0.6527 -0.7526 0.0872
vn 0.7609 -0.0984 0.6414
vn 0.9345 -0.1181 0.3359
vn 0.8175 -0.4827 0.3141
vn 0.6809 -0.4016 0.6124
vn 0.3449 -0.9323 0.1091
vn 0.3141 -0.8175 0.4827
vn 0.6124 -0.6809 0.4016
vn 0.2542 -0.6423 0.7231
vn 0.3134 -0.3367 0.8880
vn 0.6116 -0.2846 0.7382
vn 0.4827 -0.3141 0.8175
vn 0.5118 -0.1094 0.8521
vn 0.6527 -0.0872 0.7526
vn 0.1091 -0.3449 0.9323
vn 0.1178 -0.1213 0.9856
vn 0.3359 -0.1181 0.9345
vn 0.0984 -0.6414 0.7609
vn 0.1094 -0.5118 0.8521
vn 0.2841 -0.5128 0.8101
vn 0.4836 -0.7547 0.4434
vn 0.4440 -0.6915 0.5699
vn 0.5704 -0.6329 0.5235
vn 0.1094 -0.8521 0.5118
vn 0.0872 -0.7526 0.6527
vn 0.2846 -0.7382 0.6116
vn 0.1178 -0.9856 0.1213
vn 0.1091 -0.9323 0.3449
vn 0.3367 -0.8880 0.3134
vn 0.7547 -0.4434 0.4836
vn 0.6915 -0.5699 0.4440
vn 0.6329 -0.5235 0.5704
vn 0.8465 -0.5232 0.0981
vn 0.7526 -0.6527 0.0872
vn 0.7382 -0.6116 0.2846
vn 0.9856 -0.1213 0.1178
vn 0.9323 -0.3449 0.1091
vn 0.8880 -0.3134 0.3367
vn 0.8521 -0.1094 0.5118
vn 0.8101 -0.2841 0.5128
vn 0.7231 -0.2542 0.6423
vn 0.5118 -0.8521 0.1094
vn 0.5128 -0.8101 0.2841
vn 0.6423 -0.7231 0.2542
vn 0.4016 -0.6124 0.6809
vn 0.4434 -0.4836 0.7547
vn 0.5699 -0.4440 0.6915
usemtl Material
s off
f 61/1/1 1/2/1 30/3/1
f 22/4/2 33/5/2 60/6/2
f 29/7/3 37/8/3 59/9/3
f 38/10/4 28/11/4 58/12/4
f 39/13/5 40/14/5 57/15/5
f 20/16/6 41/17/6 56/18/6
f 42/19/7 24/20/7 55/21/7
f 43/22/8 44/23/8 54/24/8
f 31/25/9 45/26/9 53/27/9
f 52/28/10 9/29/10 21/30/10
f 51/31/11 19/32/11 48/33/11
f 50/34/12 8/35/12 49/36/12
f 47/37/13 49/36/13 19/32/13
f 14/38/14 50/34/14 47/37/14
f 35/39/15 29/7/15 50/34/15
f 34/40/16 48/33/16 13/41/16
f 6/42/17 51/31/17 34/40/17
f 26/43/18 47/37/18 51/31/18
f 25/44/19 21/30/19 2/45/19
f 13/41/20 52/28/20 25/44/20
f 48/33/21 46/46/21 52/28/21
f 53/27/22 18/47/22 43/22/22
f 30/3/23 43/22/23 9/29/23
f 1/2/24 53/27/24 30/3/24
f 54/24/25 11/48/25 32/49/25
f 21/30/26 32/49/26 2/45/26
f 9/29/27 54/24/27 21/30/27
f 55/21/28 5/50/28 23/51/28
f 44/23/29 23/51/29 11/48/29
f 18/47/30 55/21/30 44/23/30
f 56/18/31 17/52/31 39/13/31
f 31/25/32 39/13/32 10/53/32
f 1/2/33 56/18/33 31/25/33
f 57/15/34 15/54/34 36/55/34
f 22/4/35 36/55/35 4/56/35
f 10/53/36 57/15/36 22/4/36
f 58/12/37 7/57/37 27/58/37
f 40/14/38 27/58/38 15/54/38
f 17/52/39 58/12/39 40/14/39
f 59/9/40 16/59/40 38/10/40
f 41/17/41 38/10/41 17/52/41
f 8/35/42 59/9/42 41/17/42
f 60/6/43 12/60/43 42/19/43
f 45/26/44 42/19/44 18/47/44
f 10/53/45 60/6/45 45/26/45
f 46/46/46 30/3/46 9/29/46
f 19/32/47 61/1/47 46/46/47
f 49/36/48 20/16/48 61/1/48
f 75/61/49 96/62/49 14/38/49
f 76/63/50 97/64/50 15/54/50
f 72/65/51 93/66/51 11/48/51
f 122/67/52 62/68/52 81/69/52
f 94/70/53 83/71/53 121/72/53
f 90/73/54 98/74/54 64/75/54
f 99/76/55 89/77/55 77/78/55
f 101/79/56 100/80/56 118/81/56
f 102/82/57 81/69/57 117/83/57
f 85/84/58 103/85/58 116/86/58
f 105/87/59 104/88/59 115/89/59
f 106/90/60 92/91/60 114/92/60
f 113/93/61 70/94/61 107/95/61
f 112/96/62 80/97/62 108/98/62
f 111/99/63 69/100/63 90/73/63
f 108/98/64 110/101/64 111/99/64
f 75/61/65 111/99/65 96/62/65
f 90/73/66 96/62/66 111/99/66
f 95/102/67 109/103/67 112/96/67
f 67/104/68 112/96/68 87/105/68
f 87/105/69 108/98/69 75/61/69
f 82/106/70 86/107/70 63/108/70
f 113/93/71 74/109/71 86/107/71
f 109/103/72 107/95/72 80/97/72
f 79/110/73 114/92/73 104/88/73
f 104/88/74 91/111/74 70/94/74
f 114/92/75 62/68/75 91/111/75
f 72/65/76 115/89/76 93/66/76
f 82/106/77 93/66/77 115/89/77
f 115/89/78 70/94/78 82/106/78
f 116/86/79 66/112/79 85/84/79
f 105/87/80 84/113/80 116/86/80
f 116/86/81 79/110/81 105/87/81
f 78/114/82 117/83/82 100/80/82
f 100/80/83 92/91/83 71/115/83
f 117/83/84 62/68/84 92/91/84
f 118/81/85 76/63/85 101/79/85
f 83/71/86 97/64/86 118/81/86
f 118/81/87 71/115/87 83/71/87
f 119/116/88 68/117/88 89/77/88
f 101/79/89 88/118/89 119/116/89
f 119/116/90 78/114/90 101/79/90
f 120/119/91 77/78/91 98/74/91
f 99/76/92 102/82/92 78/114/92
f 120/119/93 69/100/93 102/82/93
f 121/72/94 73/120/94 94/70/94
f 103/85/95 106/90/95 79/110/95
f 121/72/96 71/115/96 106/90/96
f 107/95/97 91/111/97 122/67/97
f 80/97/98 122/67/98 110/101/98
f 110/101/99 81/69/99 69/100/99
f 61/1/100 20/16/100 1/2/100
f 22/4/101 4/56/101 33/5/101
f 29/7/102 3/121/102 37/8/102
f 38/10/103 16/59/103 28/11/103
f 39/13/104 17/52/104 40/14/104
f 20/16/105 8/35/105 41/17/105
f 42/19/106 12/60/106 24/20/106
f 43/22/107 18/47/107 44/23/107
f 31/25/108 10/53/108 45/26/108
f 52/28/109 46/46/109 9/29/109
f 51/31/110 47/37/110 19/32/110
f 50/34/111 29/7/111 8/35/111
f 47/37/112 50/34/112 49/36/112
f 14/38/113 35/39/113 50/34/113
f 35/39/114 3/121/114 29/7/114
f 34/40/115 51/31/115 48/33/115
f 6/42/116 26/43/116 51/31/116
f 26/43/117 14/38/117 47/37/117
f 25/44/118 52/28/118 21/30/118
f 13/41/119 48/33/119 52/28/119
f 48/33/120 19/32/120 46/46/120
f 53/27/121 45/26/121 18/47/121
f 30/3/122 53/27/122 43/22/122
f 1/2/123 31/25/123 53/27/123
f 54/24/124 44/23/124 11/48/124
f 21/30/125 54/24/125 32/49/125
f 9/29/126 43/22/126 54/24/126
f 55/21/127 24/20/127 5/50/127
f 44/23/128 55/21/128 23/51/128
f 18/47/129 42/19/129 55/21/129
f 56/18/130 41/17/130 17/52/130
f 31/25/131 56/18/131 39/13/131
f 1/2/132 20/16/132 56/18/132
f 57/15/133 40/14/133 15/54/133
f 22/4/134 57/15/134 36/55/134
f 10/53/135 39/13/135 57/15/135
f 58/12/136 28/11/136 7/57/136
f 40/14/137 58/12/137 27/58/137
f 17/52/138 38/10/138 58/12/138
f 59/9/139 37/8/139 16/59/139
f 41/17/140 59/9/140 38/10/140
f 8/35/141 29/7/141 59/9/141
f 60/6/142 33/5/142 12/60/142
f 45/26/143 60/6/143 42/19/143
f 10/53/144 22/4/144 60/6/144
f 46/46/145 61/1/145 30/3/145
f 19/32/146 49/36/146 61/1/146
f 49/36/147 8/35/147 20/16/147
f 89/77/49 68/117/49 7/57/49
f 7/57/49 28/11/49 89/77/49
f 28/11/49 16/59/49 77/78/49
f 16/59/49 37/8/49 98/74/49
f 37/8/49 3/121/49 64/75/49
f 3/121/49 35/39/49 64/75/49
f 35/39/49 14/38/49 96/62/49
f 64/75/49 35/39/49 96/62/49
f 14/38/49 26/43/49 75/61/49
f 26/43/49 6/42/49 87/105/49
f 75/61/49 26/43/49 87/105/49
f 6/42/49 67/104/49 87/105/49
f 28/11/49 77/78/49 89/77/49
f 37/8/49 64/75/49 98/74/49
f 98/74/49 77/78/49 16/59/49
f 85/84/50 66/112/50 5/50/50
f 5/50/50 24/20/50 85/84/50
f 24/20/50 12/60/50 73/120/50
f 12/60/50 33/5/50 94/70/50
f 33/5/50 4/56/50 65/122/50
f 4/56/50 36/55/50 65/122/50
f 36/55/50 15/54/50 97/64/50
f 65/122/50 36/55/50 97/64/50
f 15/54/50 27/58/50 76/63/50
f 27/58/50 7/57/50 88/118/50
f 76/63/50 27/58/50 88/118/50
f 7/57/50 68/117/50 88/118/50
f 24/20/50 73/120/50 85/84/50
f 33/5/50 65/122/50 94/70/50
f 94/70/50 73/120/50 12/60/50
f 95/102/51 67/104/51 6/42/51
f 6/42/51 34/40/51 95/102/51
f 34/40/51 13/41/51 74/109/51
f 13/41/51 25/44/51 86/107/51
f 25/44/51 2/45/51 63/108/51
f 2/45/51 32/49/51 63/108/51
f 32/49/51 11/48/51 93/66/51
f 63/108/51 32/49/51 93/66/51
f 11/48/51 23/51/51 72/65/51
f 23/51/51 5/50/51 84/113/51
f 72/65/51 23/51/51 84/113/51
f 5/50/51 66/112/51 84/113/51
f 34/40/51 74/109/51 95/102/51
f 25/44/51 63/108/51 86/107/51
f 86/107/51 74/109/51 13/41/51
f 122/67/148 91/111/148 62/68/148
f 94/70/149 65/122/149 83/71/149
f 90/73/150 120/119/150 98/74/150
f 99/76/151 119/116/151 89/77/151
f 101/79/152 78/114/152 100/80/152
f 102/82/153 69/100/153 81/69/153
f 85/84/154 73/120/154 103/85/154
f 105/87/155 79/110/155 104/88/155
f 106/90/156 71/115/156 92/91/156
f 113/93/157 82/106/157 70/94/157
f 112/96/158 109/103/158 80/97/158
f 111/99/159 110/101/159 69/100/159
f 108/98/160 80/97/160 110/101/160
f 75/61/161 108/98/161 111/99/161
f 90/73/162 64/75/162 96/62/162
f 95/102/163 74/109/163 109/103/163
f 67/104/164 95/102/164 112/96/164
f 87/105/165 112/96/165 108/98/165
f 82/106/166 113/93/166 86/107/166
f 113/93/167 109/103/167 74/109/167
f 109/103/168 113/93/168 107/95/168
f 79/110/169 106/90/169 114/92/169
f 104/88/170 114/92/170 91/111/170
f 114/92/171 92/91/171 62/68/171
f 72/65/172 105/87/172 115/89/172
f 82/106/173 63/108/173 93/66/173
f 115/89/174 104/88/174 70/94/174
f 116/86/175 84/113/175 66/112/175
f 105/87/176 72/65/176 84/113/176
f 116/86/177 103/85/177 79/110/177
f 78/114/178 102/82/178 117/83/178
f 100/80/179 117/83/179 92/91/179
f 117/83/180 81/69/180 62/68/180
f 118/81/181 97/64/181 76/63/181
f 83/71/182 65/122/182 97/64/182
f 118/81/183 100/80/183 71/115/183
f 119/116/184 88/118/184 68/117/184
f 101/79/185 76/63/185 88/118/185
f 119/116/186 99/76/186 78/114/186
f 120/119/187 99/76/187 77/78/187
f 99/76/188 120/119/188 102/82/188
f 120/119/189 90/73/189 69/100/189
f 121/72/190 103/85/190 73/120/190
f 103/85/191 121/72/191 106/90/191
f 121/72/192 83/71/192 71/115/192
f 107/95/193 70/94/193 91/111/193
f 80/97/194 107/95/194 122/67/194
f 110/101/195 122/67/195 81/69/195
