# Blender v2.93.5 OBJ File: 'heart.blend'
# www.blender.org
mtllib obj_outroFarjan.mtl
o Cube_Cube.004
v 0.456737 2.059176 0.715039
v 2.562132 2.818327 -1.479871
v 1.137735 1.550262 0.263056
v 2.355933 3.749930 -1.608865
v 3.127304 3.028554 -0.865039
v 2.921104 3.960156 -0.994032
v 1.702907 1.760488 0.877889
v 1.021909 2.269402 1.329872
v 1.958070 3.362781 -0.975062
v 1.171985 2.435960 0.999267
v 0.731525 2.760734 0.451971
v 0.733976 2.273034 0.522770
v 2.396079 3.525707 -0.498566
v 1.640491 3.569939 -0.660263
v 1.530298 3.329665 0.108660
v 1.990692 3.700202 -0.279291
v 1.081726 2.890997 0.832943
v 1.190067 3.026776 0.524975
v 1.190095 3.477860 0.370712
v 1.010643 3.318103 0.590296
v 1.331860 3.255852 -0.107215
v 0.991629 2.952963 0.309100
v 0.991657 3.404047 0.154837
v 0.812204 3.244290 0.374420
vt 0.401004 0.002453
vt 0.204181 0.692403
vt 0.204181 0.101017
vt 0.405910 0.002453
vt 0.603038 0.101017
vt 0.405910 0.101017
vt 0.199275 0.002453
vt 0.002453 0.692403
vt 0.002453 0.101017
vt 0.805073 0.778185
vt 0.607944 0.563684
vt 0.805073 0.563684
vt 0.405910 0.692403
vt 0.805073 0.558778
vt 0.782896 0.137622
vt 0.805073 0.002453
vt 0.405910 0.697309
vt 0.479074 0.834770
vt 0.405910 0.850084
vt 0.607944 0.558778
vt 0.782896 0.496192
vt 0.630121 0.137622
vt 0.607944 0.002453
vt 0.630121 0.496192
vt 0.767583 0.247996
vt 0.671902 0.360630
vt 0.645435 0.247996
vt 0.906216 0.002453
vt 0.997547 0.445258
vt 0.906216 0.510677
vt 0.809979 0.002453
vt 0.901310 0.445259
vt 0.809979 0.510676
vt 0.483980 0.838567
vt 0.532546 0.764061
vt 0.532546 0.838567
vt 0.645435 0.514256
vt 0.671902 0.460293
vt 0.761795 0.456036
vt 0.746903 0.369593
vt 0.761795 0.306217
vt 0.642334 0.528208
vt 0.738015 0.474244
vt 0.764482 0.528208
vt 0.731999 0.413094
vt 0.684119 0.449457
vt 0.684119 0.413094
vt 0.586017 0.838567
vt 0.537452 0.764061
vt 0.586017 0.697309
vt 0.655284 0.852305
vt 0.607944 0.783091
vt 0.655284 0.783091
vt 0.741116 0.360630
vt 0.671902 0.442197
vt 0.401004 0.790967
vt 0.603038 0.002453
vt 0.199275 0.790967
vt 0.607944 0.778185
vt 0.603038 0.692403
vt 0.479074 0.712622
vt 0.997547 0.067871
vt 0.901310 0.067871
vt 0.483980 0.697309
vt 0.746903 0.425671
vt 0.668801 0.474244
vt 0.731999 0.449457
vt 0.537452 0.838567
vt 0.607944 0.852305
vt 0.741116 0.442197
vn -0.6563 -0.2441 -0.7139
vn 0.7235 0.0650 -0.6873
vn 0.6563 0.2441 0.7139
vn -0.2628 -0.8130 0.5195
vn 0.5151 -0.8364 -0.1875
vn -0.5151 0.8364 0.1875
vn -0.7485 0.0916 0.6568
vn 0.1455 0.8875 -0.4372
vn 0.5613 0.3801 0.7352
vn -0.7329 -0.1013 -0.6727
vn -0.5513 -0.4908 0.6746
vn 0.0921 0.9132 -0.3969
usemtl Material.002
s 1
f 1/1/1 2/2/1 3/3/1
f 4/4/2 5/5/2 2/6/2
f 6/7/3 7/8/3 5/9/3
f 8/10/4 3/11/4 7/12/4
f 5/5/5 3/13/5 2/6/5
f 1/14/6 9/15/6 4/16/6
f 10/17/7 11/18/7 12/19/7
f 8/20/6 12/21/6 1/14/6
f 4/16/6 13/22/6 6/23/6
f 8/20/6 13/22/6 10/24/6
f 14/25/6 15/26/6 16/27/6
f 9/15/8 16/27/8 13/22/8
f 13/28/9 17/29/9 10/30/9
f 12/31/10 14/32/10 9/33/10
f 18/34/3 19/35/3 20/36/3
f 17/37/6 15/26/6 18/38/6
f 11/39/6 21/40/6 14/41/6
f 17/42/6 22/43/6 11/44/6
f 23/45/6 20/46/6 19/47/6
f 22/48/1 23/49/1 21/50/1
f 18/51/11 24/52/11 22/53/11
f 21/54/12 19/55/12 15/26/12
f 1/1/1 4/56/1 2/2/1
f 4/4/2 6/57/2 5/5/2
f 6/7/3 8/58/3 7/8/3
f 8/10/4 1/59/4 3/11/4
f 5/5/5 7/60/5 3/13/5
f 1/14/6 12/21/6 9/15/6
f 10/17/7 17/61/7 11/18/7
f 8/20/6 10/24/6 12/21/6
f 4/16/6 9/15/6 13/22/6
f 8/20/6 6/23/6 13/22/6
f 14/25/6 21/54/6 15/26/6
f 9/15/8 14/25/8 16/27/8
f 13/28/9 16/62/9 17/29/9
f 12/31/10 11/63/10 14/32/10
f 18/34/3 15/64/3 19/35/3
f 17/37/6 16/27/6 15/26/6
f 11/39/6 22/65/6 21/40/6
f 17/42/6 18/66/6 22/43/6
f 23/45/6 24/67/6 20/46/6
f 22/48/1 24/68/1 23/49/1
f 18/51/11 20/69/11 24/52/11
f 21/54/12 23/70/12 19/55/12
