# Blender v2.93.5 OBJ File: ''
# www.blender.org
mtllib obj_farjan.mtl
o Cube_Cube.001
v -1.372160 -1.372160 4.116481
v -1.372160 1.372160 5.488641
v -1.372160 -1.372160 -4.116481
v -1.372160 1.372160 -5.488641
v 1.372160 -1.372160 4.116481
v 1.372160 1.372160 5.488641
v 1.372160 -1.372160 -4.116481
v 1.372160 1.372160 -5.488641
v -1.063427 1.372160 4.253707
v -1.063427 1.372160 -2.821514
v 1.063427 1.372160 4.253707
v 1.063427 1.372160 -2.821514
v -0.850240 2.633704 3.342993
v -0.850240 2.633704 -1.910800
v 0.850240 2.633704 3.342993
v 0.850240 2.633704 -1.910800
v -0.481782 2.633704 2.278191
v -0.481782 2.633704 0.311670
v 0.481782 2.633704 2.278191
v 0.481782 2.633704 0.311670
v -0.481782 3.743714 2.278191
v -0.481782 3.743714 1.240960
v 0.481782 3.743714 2.278191
v 0.481782 3.743714 1.240960
vt 0.401004 0.002453
vt 0.204181 0.692403
vt 0.204181 0.101017
vt 0.405910 0.002453
vt 0.603038 0.101017
vt 0.405910 0.101017
vt 0.199275 0.002453
vt 0.002453 0.692403
vt 0.002453 0.101017
vt 0.805073 0.778185
vt 0.607944 0.563684
vt 0.805073 0.563684
vt 0.405910 0.692403
vt 0.805073 0.558778
vt 0.782896 0.137622
vt 0.805073 0.002453
vt 0.405910 0.697309
vt 0.479074 0.834770
vt 0.405910 0.850084
vt 0.607944 0.558778
vt 0.782896 0.496192
vt 0.630121 0.137622
vt 0.607944 0.002453
vt 0.630121 0.496192
vt 0.767583 0.247996
vt 0.671902 0.360630
vt 0.645435 0.247996
vt 0.906216 0.002453
vt 0.997547 0.445258
vt 0.906216 0.510677
vt 0.809979 0.002453
vt 0.901310 0.445259
vt 0.809979 0.510676
vt 0.483980 0.838567
vt 0.532546 0.764061
vt 0.532546 0.838567
vt 0.645435 0.514256
vt 0.671902 0.460293
vt 0.761795 0.456036
vt 0.746903 0.369593
vt 0.761795 0.306217
vt 0.642334 0.528208
vt 0.738015 0.474244
vt 0.764482 0.528208
vt 0.731999 0.413094
vt 0.684119 0.449457
vt 0.684119 0.413094
vt 0.586017 0.838567
vt 0.537452 0.764061
vt 0.586017 0.697309
vt 0.655284 0.852305
vt 0.607944 0.783091
vt 0.655284 0.783091
vt 0.741116 0.360630
vt 0.671902 0.442197
vt 0.401004 0.790967
vt 0.603038 0.002453
vt 0.199275 0.790967
vt 0.607944 0.778185
vt 0.603038 0.692403
vt 0.479074 0.712622
vt 0.997547 0.067871
vt 0.901310 0.067871
vt 0.483980 0.697309
vt 0.746903 0.425671
vt 0.668801 0.474244
vt 0.731999 0.449457
vt 0.537452 0.838567
vt 0.607944 0.852305
vt 0.741116 0.442197
vn -1.0000 0.0000 0.0000
vn 0.0000 -0.4472 -0.8944
vn 1.0000 0.0000 0.0000
vn 0.0000 -0.4472 0.8944
vn 0.0000 -1.0000 0.0000
vn 0.0000 1.0000 0.0000
vn 0.0000 0.5853 0.8108
vn 0.0000 0.5853 -0.8108
vn 0.9860 0.1666 0.0000
vn -0.9860 0.1666 0.0000
vn 0.0000 0.0000 1.0000
vn 0.0000 0.6419 -0.7668
usemtl Material.001
s off
f 2/1/1 3/2/1 1/3/1
f 4/4/2 7/5/2 3/6/2
f 8/7/3 5/8/3 7/9/3
f 6/10/4 1/11/4 5/12/4
f 7/5/5 1/13/5 3/6/5
f 2/14/6 10/15/6 4/16/6
f 11/17/7 13/18/7 9/19/7
f 6/20/6 9/21/6 2/14/6
f 4/16/6 12/22/6 8/23/6
f 6/20/6 12/22/6 11/24/6
f 14/25/6 20/26/6 16/27/6
f 10/15/8 16/27/8 12/22/8
f 12/28/9 15/29/9 11/30/9
f 9/31/10 14/32/10 10/33/10
f 19/34/3 24/35/3 23/36/3
f 15/37/6 20/26/6 19/38/6
f 13/39/6 18/40/6 14/41/6
f 15/42/6 17/43/6 13/44/6
f 22/45/6 23/46/6 24/47/6
f 17/48/1 22/49/1 18/50/1
f 19/51/11 21/52/11 17/53/11
f 18/54/12 24/55/12 20/26/12
f 2/1/1 4/56/1 3/2/1
f 4/4/2 8/57/2 7/5/2
f 8/7/3 6/58/3 5/8/3
f 6/10/4 2/59/4 1/11/4
f 7/5/5 5/60/5 1/13/5
f 2/14/6 9/21/6 10/15/6
f 11/17/7 15/61/7 13/18/7
f 6/20/6 11/24/6 9/21/6
f 4/16/6 10/15/6 12/22/6
f 6/20/6 8/23/6 12/22/6
f 14/25/6 18/54/6 20/26/6
f 10/15/8 14/25/8 16/27/8
f 12/28/9 16/62/9 15/29/9
f 9/31/10 13/63/10 14/32/10
f 19/34/3 20/64/3 24/35/3
f 15/37/6 16/27/6 20/26/6
f 13/39/6 17/65/6 18/40/6
f 15/42/6 19/66/6 17/43/6
f 22/45/6 21/67/6 23/46/6
f 17/48/1 21/68/1 22/49/1
f 19/51/11 23/69/11 21/52/11
f 18/54/12 22/70/12 24/55/12
